<?xml version="1.0" encoding="UTF-8"?>
<!DOCTYPE svg PUBLIC "-//W3C//DTD SVG 1.1//EN" "http://www.w3.org/Graphics/SVG/1.1/DTD/svg11.dtd">
<!-- Creator: CorelDRAW -->
<svg xmlns="http://www.w3.org/2000/svg" xml:space="preserve" width="152.4mm" height="152.4mm" version="1.1" style="shape-rendering:geometricPrecision; text-rendering:geometricPrecision; image-rendering:optimizeQuality; fill-rule:evenodd; clip-rule:evenodd"
viewBox="0 0 15240 15240"
 xmlns:xlink="http://www.w3.org/1999/xlink"
 xmlns:xodm="http://www.corel.com/coreldraw/odm/2003">
 <defs>
  <style type="text/css">
   <![CDATA[
    .str4 {stroke:#FEFEFE;stroke-width:256.83;stroke-miterlimit:22.9256}
    .str0 {stroke:black;stroke-width:17.64;stroke-miterlimit:22.9256}
    .str1 {stroke:black;stroke-width:17.64;stroke-miterlimit:2.61313}
    .str5 {stroke:#373435;stroke-width:150;stroke-linejoin:round;stroke-miterlimit:22.9256}
    .str2 {stroke:#373435;stroke-width:150.43;stroke-linejoin:round;stroke-miterlimit:22.9256}
    .str3 {stroke:#373435;stroke-width:150.6;stroke-linejoin:round;stroke-miterlimit:22.9256}
    .fil5 {fill:none}
    .fil6 {fill:none;fill-rule:nonzero}
    .fil0 {fill:#FEFEFE}
    .fil1 {fill:#3E4095}
    .fil4 {fill:#FEFEFE;fill-rule:nonzero}
    .fil3 {fill:#FFF212;fill-rule:nonzero}
    .fil7 {fill:#ED3237;fill-rule:nonzero}
    .fil2 {fill:url(#id1)}
   ]]>
  </style>
    <clipPath id="id0">
     <rect x="3369.16" y="4539.61" width="8501.7" height="6655.6"/>
    </clipPath>
  <radialGradient id="id1" gradientUnits="userSpaceOnUse" gradientTransform="matrix(0.734592 1.17894 -1.14385 0.70984 10739 -6773)" cx="7620" cy="7620" r="3488.55" fx="7620" fy="7620">
   <stop offset="0" style="stop-opacity:1; stop-color:#FEFEFE"/>
   <stop offset="1" style="stop-opacity:1; stop-color:#FBFAE3"/>
  </radialGradient>
 </defs>
 <g id="Layer_x0020_1">
  <metadata id="CorelCorpID_0Corel-Layer"/>
  <polygon class="fil0 str0" points="-0,0 15240,0 15240,15240 -0,15240 "/>
  <g id="_1666424326240">
   <path class="fil1 str1" d="M7620 1270c3507,0 6350,2843 6350,6350 0,3507 -2843,6350 -6350,6350 -3507,0 -6350,-2843 -6350,-6350 0,-3507 2843,-6350 6350,-6350z"/>
   <path class="fil2" d="M7620 2774.8c2675.93,0 4845.21,2169.28 4845.21,4845.21 0,2675.93 -2169.28,4845.2 -4845.21,4845.2 -2675.93,0 -4845.2,-2169.27 -4845.2,-4845.2 0,-2675.93 2169.27,-4845.21 4845.2,-4845.21z"/>
   <path class="fil3" d="M7847.79 1941.97l-41.46 -1.24c-7.46,-52.89 -20.23,-88.7 -38.16,-107.17 -17.95,-18.46 -42.65,-28.24 -74.38,-29.19 -28.35,-0.84 -50.58,5.83 -66.96,20.16 -16.24,14.2 -24.7,32.87 -25.38,55.72 -0.61,20.31 6.17,39.01 20.2,55.95 14.17,17.22 48.24,39.14 102.24,65.6 53.98,26.32 91.57,53.7 112.47,81.86 20.88,28.58 30.72,63.32 29.49,104.37 -1.48,49.51 -21.4,92.39 -59.9,128.66 -38.35,36.27 -99.14,53.08 -182.37,50.59 -29.76,-0.89 -57.76,-3.98 -84.01,-9.15 -20.08,-3.56 -44.72,-10.65 -74.19,-21.14 6.24,-48.23 10.07,-95.98 11.48,-142.95l0.83 -27.64 41.46 1.24c8.67,55.03 20.41,91.95 35.23,110.89 19.56,25.57 47.54,38.98 83.93,40.07 28.77,0.86 52.31,-7.19 70.18,-24.03 18.01,-16.83 27.42,-38.85 28.23,-65.79 0.51,-17.07 -2.71,-32.42 -9.5,-45.89 -6.94,-13.48 -17.44,-25.79 -31.51,-36.95 -14.07,-11.14 -39.73,-26.16 -77.15,-44.93 -57.28,-29.39 -95.42,-57.21 -114.4,-83.48 -18.99,-25.98 -27.96,-56.18 -26.94,-90.6 1.52,-50.77 21.53,-92.25 59.92,-124.56 38.52,-32.31 93.04,-47.34 163.57,-45.23 46.83,1.4 97.34,11.81 151.67,31.37 -2.41,43.27 -3.88,73.3 -4.38,90.08 -0.59,19.61 -0.65,40.78 -0.21,63.38z"/>
   <path class="fil3" d="M8217.63 1810.58l5.5 -29.98c48.07,11.69 87.94,20.44 119.44,26.22 33.59,6.17 70.35,11.48 110.28,15.94 5.72,32.89 13.85,72.26 24.4,117.96 29.39,122.89 56.21,227.68 80.23,314.15l142.87 -202.34c22.83,-32.97 41.16,-60.16 55,-81.58 13.83,-21.42 30.85,-49.29 51.15,-83.29 51.12,12.24 88.49,20.53 111.8,24.81 20.13,3.7 56.89,9.01 110.13,15.91l-5.5 29.98c-8.49,0.16 -14.77,0.02 -19.04,-0.2 -36.21,-0.47 -57.61,1.2 -64.08,5.18 -6.44,3.83 -11.88,13.16 -16.23,28.3 -4.33,14.98 -16.31,76.34 -36.05,183.91 -25.07,136.58 -37.99,207.81 -38.81,213.83 -3.12,21.66 -3.98,34.98 -2.52,40.27 1.45,5.43 3.72,9.44 6.79,12.3 8.58,7.17 27.65,15.83 57.34,26.02l17.78 7.13 -5.58 30.4c-65.28,-14.85 -115.13,-25.43 -149.7,-31.77 -35.52,-6.52 -88.38,-14.79 -158.43,-24.78l5.51 -29.98c44.33,-0.04 69.4,-0.6 75.11,-1.99 5.7,-1.4 10.29,-3.71 13.61,-6.97 3.47,-3.24 6.21,-8.04 8.39,-14.39 2.17,-6.35 7.7,-34.16 16.69,-83.17 20.14,-106.62 35.7,-189.85 46.71,-249.82 1.04,-5.68 4.16,-23.47 9.36,-53.37 -20.53,28.22 -96.77,138.77 -228.88,331.74l-57.6 83.26 -32.34 -5.93c-17.83,-74.87 -58.83,-239.21 -122.88,-493 -7.07,35.44 -12.88,65.5 -17.42,90.21 -24.83,135.33 -40.01,225.08 -45.54,269.26 -3.18,25.24 -4.34,39.37 -3.52,42.68 0.86,5.47 4.12,10.37 9.75,14.85 5.66,4.33 23.22,11.86 52.66,22.72 3.76,1.4 9.1,3.53 16.06,6.24l-5.5 29.98c-38.07,-9.85 -74.88,-18.04 -110.69,-24.61 -36.09,-6.63 -77.57,-12.8 -124.16,-18.49l5.51 -29.98c36.54,0.25 58.87,-0.23 67.01,-1.62 8.12,-1.23 14.65,-4.76 19.68,-10.29 4.87,-5.42 8.96,-16.73 12.11,-33.93l52.48 -257.81c9.41,-45.05 16.15,-78.67 20.18,-100.6 6.21,-33.87 8.5,-56.55 6.98,-67.73 -1.03,-6.93 -4.3,-12.55 -9.82,-16.87 -5.63,-4.47 -24.8,-11.86 -57.46,-22.31 -4.34,-1.36 -10.55,-3.51 -18.76,-6.45z"/>
   <path class="fil3" d="M7290.88 2062.75l-19.71 1.5 -55.33 -154.29c-7.14,-19.41 -11.3,-36.92 -12.49,-52.54 -1.4,-18.44 3.21,-34.07 13.98,-46.92 10.76,-12.84 24.65,-19.98 41.82,-21.29 17.31,-1.32 32.24,3.34 44.79,13.99 12.56,10.66 19.47,25.12 20.85,43.28 0.88,11.54 -0.83,29.92 -5.14,55.15l-28.77 161.12z"/>
   <path class="fil3" d="M6449.65 1897.67l-3.7 -30.25c37.88,-1.8 72.92,-4.67 105.28,-8.63 32.5,-3.98 70.7,-10.07 114.48,-18.27 38.86,41.02 154.55,153.39 347.05,336.96l-29.16 -224.18c-8.1,-54.6 -13.92,-84.74 -17.48,-90.56 -3.69,-5.8 -9.05,-10.12 -16.05,-12.67 -6.87,-2.72 -30.67,-4.36 -70.97,-4.96l-3.71 -30.26c44.33,-2.58 82.73,-5.86 115.51,-9.88 31.65,-3.87 71.82,-10.21 120.64,-19.02l3.7 30.25c-8.19,2.71 -14.35,4.6 -18.37,5.52 -31.59,8.99 -50.13,16.66 -55.57,23.3 -5.59,6.65 -7.74,19.28 -6.61,37.76 2.45,38.66 10.98,117.66 25.59,236.99 9.39,76.75 21.23,164.16 35.54,262.49 -12.12,5.47 -24.18,11.5 -35.87,18.19l-180.09 -178.56 -273.28 -261.68 25.68 195.89 26.7 190.22c2.6,14.32 5.11,23.12 7.37,26.53 2.43,3.54 5.59,6.14 9.37,7.96 6.58,2.74 26.65,5.26 60.3,7.25 4.01,0.23 9.93,0.92 17.89,2.08l3.7 30.25c-47.55,2.98 -85.54,6.21 -114.1,9.71 -24.38,2.98 -65.67,9.45 -123.73,19.4l-3.71 -30.25c8.19,-2.85 14.46,-5.04 18.68,-6.55 30.77,-8.74 48.96,-15.8 54.28,-21.14 3.54,-3.57 5.67,-8.23 6.66,-14.04 1,-5.81 -2.29,-46.63 -9.61,-122.66 -10.48,-110.03 -20.46,-204.33 -30.06,-282.78 -3.21,-26.18 -6.68,-42.96 -10.51,-49.89 -3.72,-7.07 -9.46,-12.2 -17.38,-15.35 -7.8,-3.32 -27.01,-5.79 -57.52,-7.61 -4.71,-0.27 -11.74,-0.69 -20.94,-1.56z"/>
   <path class="fil3" d="M9049.03 2243c30.31,-89.7 82.11,-152.64 155.58,-188.88 73.41,-36.12 156.34,-38.64 248.72,-7.43 87.16,29.45 147.3,77.18 180.23,143.27 33.11,66 35.66,140.45 7.75,223.07 -17.75,52.53 -43.63,96.96 -77.88,133.5 -26.94,29.04 -56.48,51.23 -88.89,66.49 -32.29,15.31 -63.21,24.38 -92.76,27.2 -43.84,4.1 -92.58,-2.84 -146.33,-21 -89.3,-30.17 -150.06,-78.25 -182.59,-144.2 -32.48,-66.09 -33.78,-143.39 -3.83,-232.02zm142.79 24.41c-32.16,95.19 -38.54,170.93 -19.31,227.33 14.24,42.05 45.23,71.14 92.95,87.26 32.89,11.11 63.45,11.91 91.65,2.52 28.32,-9.35 54.38,-30.93 78.27,-64.56 23.92,-33.78 44.26,-75.47 61.06,-125.19 12.79,-37.84 21.73,-75.33 26.65,-112.4 4.93,-37.06 4.88,-67.32 -0.25,-90.94 -5,-23.58 -15.44,-44.69 -31.02,-63.37 -15.58,-18.67 -37.35,-32.72 -65.29,-42.16 -31.02,-10.48 -61.63,-11.14 -91.69,-1.94 -30.08,9.21 -57.48,30.33 -82.24,63.52 -24.77,33.19 -44.97,73.14 -60.78,119.93z"/>
   <path class="fil3" d="M6418.32 2167.92l8.24 29.34c-34.28,16.8 -55.62,28.96 -64.07,36.45 -4.07,3.79 -6.34,9.26 -6.92,16.6 -0.44,7.31 4.06,28.03 13.67,62.26 15.38,54.76 29.47,102.83 42.35,144.5 -17.19,8.2 -35.78,17.67 -55.99,28.19 -52.81,28.02 -91.15,47 -115.1,57.23 -23.84,10.08 -50.02,19.18 -78.41,27.16 -66.01,18.54 -120.64,24.95 -163.7,19.31 -53.83,-7.45 -99.63,-29.62 -137.5,-66.32 -37.69,-36.62 -65.11,-85.19 -82.13,-145.78 -30.22,-107.59 -13.83,-201.6 49.18,-282.02 45.28,-57.42 114.43,-99.27 207.49,-125.41 62.49,-17.55 135.37,-28.35 218.7,-32.26 3.88,15.91 7.16,28.62 9.83,38.13 8.74,31.11 22.49,74.88 41.23,131.17l-39.93 11.21c-23.54,-41.02 -43.4,-68.41 -59.53,-82.49 -16.08,-13.96 -37.59,-22.72 -64.22,-26.23 -26.64,-3.51 -57.16,-0.51 -91.53,9.15 -44.97,12.63 -79.9,32.26 -104.91,59.07 -25.15,26.85 -40.54,61.8 -46.31,104.9 -5.95,43 -1.8,89.61 12.21,139.47 22.4,79.75 58.08,134.8 107.06,165.16 48.98,30.35 104.05,37.02 165.32,19.81 30.71,-8.63 62.04,-24.9 93.92,-48.66l-34.46 -122.66c-7.52,-26.77 -13.72,-43.64 -18.48,-50.66 -3.24,-4.22 -7.97,-6.99 -14.24,-8.46 -6.24,-1.32 -24.49,-1.03 -54.79,1.17 -3.31,0.2 -8.54,0.35 -15.66,0.6l-8.24 -29.35c61.9,-14.45 108.19,-25.99 139.03,-34.65 22.55,-6.34 71.89,-21.66 147.89,-45.93z"/>
   <path class="fil3" d="M9808.56 2222.69l12.48 -27.81c33.35,18.06 64.83,33.73 94.57,47.08 29.87,13.4 65.72,27.94 107.43,43.56 12.05,55.21 52.95,211.22 122.75,467.9l91.01 -206.95c21.3,-50.91 31.9,-79.73 31.87,-86.55 -0.16,-6.87 -2.52,-13.34 -7.18,-19.14 -4.47,-5.88 -24,-19.59 -58.19,-40.96l12.48 -27.81c39.27,20.71 73.85,37.77 103.97,51.29 29.1,13.05 66.76,28.4 113.11,46.11l-12.48 27.81c-8.42,-1.93 -14.68,-3.49 -18.58,-4.78 -31.7,-8.65 -51.53,-11.67 -59.62,-8.81 -8.22,2.81 -16.59,12.51 -25.19,28.91 -17.89,34.35 -51.45,106.38 -100.67,216.07 -31.66,70.56 -66.73,151.49 -105.34,243.05 -13.21,-1.59 -26.65,-2.67 -40.11,-2.99l-61.78 -245.97 -98.56 -365.32 -79.33 180.95 -75.55 176.61c-5.17,13.61 -7.58,22.42 -7.4,26.52 0.23,4.29 1.59,8.15 3.89,11.65 4.22,5.76 20.1,18.3 47.87,37.41 3.32,2.26 8.01,5.92 14.23,11.03l-12.48 27.81c-42.23,-22.05 -76.42,-38.93 -102.68,-50.72 -22.4,-10.05 -61.09,-25.86 -115.94,-47.38l12.48 -27.81c8.48,1.8 14.98,3.17 19.37,4.06 30.86,8.43 50.08,11.79 57.4,9.97 4.87,-1.21 9.11,-4.1 12.97,-8.56 3.85,-4.46 22.15,-41.11 55.21,-109.95 47.93,-99.6 88.17,-185.49 120.52,-257.58 10.8,-24.08 16.51,-40.24 16.81,-48.14 0.49,-7.98 -1.78,-15.34 -6.93,-22.13 -4.96,-6.87 -20.12,-18.93 -45.29,-36.26 -3.9,-2.67 -9.69,-6.67 -17.12,-12.17z"/>
   <path class="fil3" d="M5598.19 2125.47l11.23 28.34 -13.23 7.98c-32.1,17.42 -50.4,30.6 -54.65,39.42 -4.25,8.82 -2.92,22.1 4.1,39.81l5.46 13.78 49.43 129.3 59.13 146.88 30.48 74.58c8.74,22.03 15.25,35.4 19.71,40.16 4.33,4.8 9.85,7.62 16.2,8.29 11.11,1.22 31.86,-1.54 62.01,-8.19 3.36,-0.72 8.4,-1.8 15.11,-3.25l11.23 28.33c-53.51,18.18 -100.2,35.17 -140.08,50.98 -37.77,14.97 -87.37,36.15 -148.77,63.52l-11.23 -28.33c36.91,-23.28 56.92,-36.38 60.1,-39.46 5.02,-4.57 8.13,-9.75 9.43,-15.27 1.59,-7.46 -1.22,-20.31 -8.19,-38.65 -15.8,-42.92 -44.02,-115.66 -84.58,-217.98l-57.9 -139.17 -4.57 -11.53c-8.12,-20.47 -16.26,-32.57 -24.5,-36.14 -8.25,-3.56 -30.48,-1.43 -66.55,6.35 -4.06,0.85 -9.99,1.98 -17.78,3.4l-11.23 -28.33c66.9,-23.49 116.86,-41.78 149.66,-54.78 35.16,-13.94 81.72,-33.91 139.98,-60.04z"/>
   <path class="fil3" d="M5282.47 2431.55l-37.07 18.63c-31.71,-42.97 -59.97,-68.4 -84.53,-76.1 -24.57,-7.72 -50.94,-4.57 -79.31,9.7 -25.34,12.74 -41.7,29.18 -49.3,49.59 -7.52,20.2 -6.1,40.65 4.17,61.07 9.13,18.16 23.99,31.37 44.4,39.59 20.65,8.42 61.04,11.48 121.11,9.07 60.01,-2.53 106.09,3.68 137.86,18.5 31.97,15.2 57.15,41.08 75.59,77.77 22.25,44.25 25.13,91.44 8.52,141.65 -16.48,50.14 -61.94,93.84 -136.33,131.24 -26.6,13.38 -52.7,23.98 -78.24,31.92 -19.36,6.42 -44.4,11.9 -75.31,16.7 -17.46,-45.39 -36.8,-89.2 -57.91,-131.19l-12.42 -24.71 37.06 -18.64c33.8,44.29 61.69,71.18 83.73,80.78 29.38,13.19 60.36,11.67 92.89,-4.68 25.71,-12.93 42.58,-31.21 50.29,-54.52 7.84,-23.36 5.64,-47.21 -6.46,-71.29 -7.67,-15.25 -17.8,-27.22 -30.19,-35.84 -12.51,-8.55 -27.6,-14.38 -45.28,-17.5 -17.68,-3.11 -47.4,-4.12 -89.24,-2.83 -64.37,1.41 -111.14,-4.93 -140.33,-18.99 -29.05,-13.83 -51.32,-36.11 -66.78,-66.87 -22.82,-45.39 -24.94,-91.39 -6.56,-138.07 18.51,-46.74 59.32,-85.89 122.35,-117.58 41.85,-21.05 91.23,-35.92 148.32,-44.57 18.45,39.21 31.46,66.32 39,81.32 8.81,17.52 18.82,36.18 29.97,55.85z"/>
   <path class="fil3" d="M10759.03 2668.23l-15.23 26.4 -14.47 -5.42c-33.61,-14.33 -55.3,-20.5 -64.85,-18.36 -9.54,2.16 -19.14,11.44 -28.66,27.94l-7.41 12.84 -70.67 119.04 -78.42 137.55 -39.54 70.21c-11.85,20.53 -18.28,33.93 -19.24,40.38 -1.07,6.38 0.14,12.46 3.55,17.85 5.95,9.46 21.01,24.02 44.94,43.53 2.64,2.19 6.62,5.45 11.93,9.82l-15.24 26.4c-47.48,-30.66 -89.79,-56.71 -126.95,-78.16 -35.2,-20.31 -82.58,-46.04 -142.17,-77.17l15.24 -26.4c41.17,14.48 63.86,22.03 68.24,22.61 6.7,1.1 12.69,0.32 17.84,-2.09 6.84,-3.39 15.16,-13.57 25.21,-30.41 23.83,-39.04 63.33,-106.34 118.35,-201.67l73.14 -131.8 6.21 -10.76c11,-19.06 15.44,-32.95 13.11,-41.63 -2.32,-8.67 -17.8,-24.77 -46.3,-48.23 -3.19,-2.65 -7.76,-6.59 -13.7,-11.82l15.24 -26.4c59.94,37.86 105.31,65.68 135.86,83.31 32.76,18.91 77.34,43.01 133.99,72.44z"/>
   <path class="fil3" d="M11164.1 3167.03l-31.17 -22.42c18.56,-58.44 28.45,-92 29.44,-100.86 1.09,-8.77 -0.51,-16.7 -5,-23.76 -4.41,-7.16 -23.32,-22.67 -56.89,-46.81l-32.54 -23.4 -225.51 313.57c-28.02,38.95 -43.53,63.43 -46.75,73.46 -1.67,5.22 -0.93,10.97 2.53,17.28 3.25,6.35 20.29,25.2 50.81,56.71l-17.79 24.75c-66.53,-51.32 -109.47,-83.94 -128.83,-97.87 -26.35,-18.94 -67.5,-46.8 -123.45,-83.57l17.79 -24.74c40.39,19.49 65.25,29.88 74.45,31.12 6.2,0.8 12.26,-1.1 18.09,-5.59 5.84,-4.5 23.45,-27.29 53.11,-68.53l223.13 -310.25 -56.48 -40.62c-19.03,-13.68 -32.78,-21.14 -41.19,-22.5 -8.38,-1.16 -17.57,0.75 -27.6,6.23 -15.13,8.23 -41.73,27.34 -80.01,57.35l-30.59 -22c27.63,-30.19 46.34,-51.14 56.33,-63.09 9.98,-11.94 28.56,-35.6 55.82,-71.1 86.92,65.99 172.75,129.11 257.56,189.57 71.98,50.73 124.08,86.81 156.26,108.05 -30.91,43.47 -61.42,93.14 -91.52,149.02z"/>
   <path class="fil3" d="M4137.58 2925.52l-16.38 -25.69c60.89,-35.47 107.93,-63.79 141.12,-84.94 33.8,-21.55 78.14,-51.48 133.02,-89.81l16.37 25.69c-43.2,37.76 -66.3,59 -69.18,63.68 -4.51,8.4 -1.52,20.71 8.88,37.01l55.68 90.52 184.99 290.2 127.44 -81.23c21.06,-13.43 34.06,-23.73 39.35,-30.94 7.12,-10.07 11.73,-23.06 14.21,-38.85 2.28,-15.85 2.9,-49.54 1.6,-100.93l31.53 -20.09c11.8,52.88 26.6,109.72 44.42,170.47 -100.39,60.65 -183.37,111.87 -248.93,153.67 -53.66,34.21 -108.71,70.97 -165.14,110.28l-16.38 -25.7c35.9,-34.26 54.94,-54.26 57.13,-60.01 2.14,-5.55 1.2,-12.81 -3.04,-21.83 -4.16,-8.88 -39.26,-64.99 -105.09,-168.27l-80.94 -126.96 -14.18 -22.24c-23.74,-37.25 -39.31,-58.79 -46.5,-64.57 -5.47,-4.38 -11.07,-6.33 -16.95,-5.59 -5.96,0.62 -30.3,9.43 -73.03,26.13z"/>
   <path class="fil3" d="M11138.84 3307.8c62.08,-71.5 133.88,-110.07 215.6,-115.74 81.63,-5.55 159.31,23.58 232.94,87.51 69.47,60.31 107,127.28 112.4,200.92 5.59,73.63 -20.29,143.47 -77.46,209.32 -36.36,41.88 -77.17,73.17 -122.71,93.99 -35.94,16.63 -71.69,25.96 -107.47,27.77 -35.68,1.92 -67.73,-1.41 -96.14,-10.02 -42.11,-12.83 -84.58,-37.75 -127.41,-74.93 -71.18,-61.81 -109.16,-129.34 -114.23,-202.7 -4.99,-73.47 23.15,-145.48 84.48,-216.12zm122.85 76.76c-65.86,75.87 -100.5,143.52 -104.11,202.99 -2.78,44.32 14.85,82.98 52.89,116.01 26.21,22.76 54.19,35.09 83.84,37.1 29.75,2.1 62.05,-7.98 96.91,-30.04 34.94,-22.17 69.58,-53.02 104,-92.66 26.18,-30.15 48.67,-61.45 67.29,-93.87 18.62,-32.42 30.05,-60.44 34.27,-84.25 4.33,-23.71 2.67,-47.2 -4.66,-70.38 -7.34,-23.19 -22.14,-44.45 -44.41,-63.79 -24.72,-21.46 -52.79,-33.69 -84.1,-36.58 -31.32,-2.89 -64.68,6.26 -100.18,27.57 -35.51,21.31 -69.36,50.61 -101.74,87.9z"/>
   <path class="fil3" d="M4211.1 3589.09l-19.87 -23.11c21.51,-26.49 33.06,-42.93 34.45,-49.33 1.47,-6.29 0.09,-12 -4.32,-17.14 -2.48,-2.89 -5.98,-5.65 -10.46,-8.49 -10.97,-5.83 -44.41,-22.86 -100.42,-51 -29.69,24.77 -54.28,45.53 -73.75,62.27 -16.04,13.8 -42.51,36.92 -79.48,69.46 23.56,75.02 37.64,115.2 42.14,120.44 4.32,5.03 9.16,7.2 14.6,6.81 5.33,-0.49 23.33,-9.45 53.97,-27.05l19.87 23.12c-28.16,20.49 -54.34,41.13 -78.41,61.83 -25.9,22.26 -51.41,46.05 -76.32,71.19l-19.87 -23.12c15.43,-20.15 24.52,-35.77 27.26,-46.88 1.96,-7.45 2.02,-16.24 0.19,-26.39 -3.19,-20.16 -22.67,-92.17 -58.66,-215.86 -22.71,-78.37 -57.58,-193.17 -104.71,-344.31l25.04 -21.53c61.7,32.37 180.86,89.59 357.4,171.36 98.14,45.52 154.79,70.51 170.36,74.98 10.66,3.32 19.58,4.39 26.56,3.41 6.97,-0.97 25.27,-8.69 54.77,-23.08l19.87 23.11c-38.75,29.6 -74.02,58.06 -105.7,85.29 -31.24,26.86 -69.38,61.51 -114.51,104.02zm-333.53 -267.61l63.65 201.53 61.2 -52.62c14.66,-12.6 35.63,-30.63 63.02,-54.18l-187.87 -94.73z"/>
   <path class="fil3" d="M11861.22 3597.89l23.43 -20.15c58.57,72.46 93.38,115.11 104.32,127.84 11.69,13.6 28.84,32.91 51.56,58.03 22.81,25.23 39.33,43.8 49.81,55.99 26.68,31.04 43.6,58.73 50.59,82.87 6.87,24.24 6.2,49 -2.03,74.49 -8.22,25.5 -23.08,47.4 -44.37,65.7 -18.2,15.64 -38.96,26.98 -62.21,33.94 -23.33,6.84 -46.31,9.11 -68.74,6.62 -14.7,-1.52 -34.26,-7.39 -58.71,-17.64 -12.26,35.29 -28.98,85.76 -50.27,151.7 -15.44,48.27 -23.91,78.25 -25.1,90.07 -1.08,11.72 -0.41,22.68 2.13,32.77 4.35,15.25 16.64,39.29 36.88,72.13l-23.11 19.87c-28.31,-37.26 -52.08,-67.07 -71.3,-89.43 -20.24,-23.54 -46.24,-51.62 -78,-84.24 36.86,-75.96 75.99,-166.37 117.42,-271.22 -9.96,-12.45 -19.96,-25.81 -30,-40.08l-129.44 113.51c-15.68,14.23 -24.63,24.16 -26.46,29.83 -1.92,5.55 -1.94,11.15 -0.07,16.81 1.1,4.08 12.95,26.08 35.64,66.11l-23.11 19.87c-39.72,-50.52 -72.23,-90.5 -97.52,-119.92 -24.93,-29 -59.21,-66.7 -102.83,-113.12l23.11 -19.87c37.06,29.92 59.19,45.68 66.69,47.06 7.4,1.45 16.84,-1.63 28.42,-9.37 6.23,-4.23 60.09,-49.8 161.83,-136.89l93.14 -80.62c43.87,-37.72 69.66,-61.19 77.36,-70.41 5.31,-6.81 7.75,-13.93 7.1,-21.18 -0.66,-7.25 -9.59,-25.43 -26.92,-54.47l-9.24 -16.6zm-42.11 319.22c8.59,10.85 15,18.75 19.32,23.78 25.12,29.21 50.66,44.84 76.53,46.8 25.86,1.95 53.02,-9.31 81.49,-33.78 26.75,-23 41.49,-47.21 44.3,-72.51 2.81,-25.3 -5.49,-49.24 -24.9,-71.82 -7.91,-9.2 -18.77,-20.53 -32.65,-34.09l-164.09 141.62z"/>
   <path class="fil3" d="M3639.01 3540.49l-26.54 27.72c-55.27,-26.54 -87.13,-41.01 -95.76,-43.21 -8.53,-2.31 -16.61,-1.84 -24.22,1.62 -7.71,3.36 -25.71,19.92 -54.31,49.79l-27.7 28.95 279 267.07c34.67,33.18 56.73,51.96 66.2,56.54 4.96,2.39 10.74,2.46 17.47,-0.08 6.74,-2.34 27.79,-16.58 63.25,-42.4l22.02 21.07c-60.1,58.71 -98.39,96.67 -114.88,113.9 -22.44,23.44 -55.78,60.31 -99.98,110.57l-22.02 -21.08c24.93,-37.26 38.69,-60.42 41.2,-69.36 1.67,-6.02 0.63,-12.29 -3,-18.7 -3.64,-6.41 -23.75,-27.02 -60.45,-62.15l-276.05 -264.25 -48.11 50.26c-16.19,16.92 -25.5,29.51 -28.02,37.65 -2.32,8.13 -1.72,17.5 2.32,28.18 6.04,16.14 21.24,45.16 45.62,87.24l-26.06 27.22c-26.04,-31.57 -44.17,-53.03 -54.6,-64.58 -10.44,-11.56 -31.27,-33.25 -62.61,-65.21 77.47,-76.84 151.96,-153.02 223.66,-228.55 60.28,-64.19 103.28,-110.74 128.79,-139.65 38.73,36.69 83.66,73.82 134.78,111.44z"/>
   <path class="fil3" d="M12504.42 4350.11l-24.85 17.65 -10.9 -10.96c-24.56,-27.04 -41.72,-41.68 -51.29,-43.72 -9.57,-2.02 -22.16,2.42 -37.7,13.46l-12.08 8.57 -113.86 78.77 -128.61 92.36 -65.21 47.35c-19.33,13.73 -30.75,23.22 -34.31,28.69 -3.65,5.35 -5.08,11.39 -4.22,17.71 1.46,11.07 9.08,30.58 22.7,58.29 1.5,3.1 3.76,7.73 6.75,13.9l-24.85 17.65c-30.37,-47.65 -57.99,-88.98 -82.83,-123.95 -23.52,-33.14 -55.89,-76.28 -97.07,-129.41l24.85 -17.65c31.39,30.32 48.86,46.64 52.61,49 5.64,3.79 11.4,5.57 17.09,5.52 7.62,-0.22 19.43,-6.01 35.59,-17.14 37.93,-25.55 101.89,-70.27 191.64,-133.99l121.42 -89.34 10.13 -7.19c17.94,-12.74 27.77,-23.53 29.27,-32.39 1.5,-8.85 -5.86,-29.94 -21.99,-63.13 -1.79,-3.75 -4.31,-9.24 -7.53,-16.46l24.85 -17.65c38.71,59.4 68.36,103.59 88.79,132.35 21.9,30.85 52.38,71.34 91.61,121.71z"/>
   <path class="fil3" d="M3090.67 3875.3l23.95 18.85 -7.43 13.55c-18.99,31.19 -28.19,51.79 -27.43,61.54 0.76,9.75 8.58,20.58 23.55,32.36l11.64 9.17 107.71 86.95 124.92 97.26 63.83 49.17c18.63,14.66 30.97,22.93 37.22,24.8 6.17,1.99 12.36,1.64 18.18,-0.95 10.21,-4.53 26.77,-17.36 49.5,-38.25 2.54,-2.31 6.35,-5.78 11.42,-10.4l23.94 18.85c-37.12,42.6 -68.95,80.76 -95.48,114.46 -25.14,31.93 -57.37,75.16 -96.7,129.67l-23.94 -18.85c20.21,-38.68 30.92,-60.05 32.13,-64.31 2.04,-6.48 2.12,-12.51 0.48,-17.94 -2.38,-7.25 -11.27,-16.95 -26.51,-29.3 -35.22,-29.16 -96.18,-77.87 -182.66,-145.95l-119.99 -91.21 -9.76 -7.69c-17.29,-13.61 -30.4,-19.99 -39.32,-18.93 -8.92,1.06 -27.07,14.08 -54.34,38.93 -3.09,2.77 -7.65,6.74 -13.66,11.87l-23.95 -18.85c46.02,-53.91 80.05,-94.83 101.86,-122.55 23.39,-29.71 53.61,-70.39 90.84,-122.25z"/>
   <path class="fil3" d="M12522.12 4406.07l26.36 -15.31c16.55,34.12 32.98,65.22 49.35,93.41 16.43,28.3 37.07,61.04 61.83,98.06 -22.42,51.87 -80.22,202.43 -173.27,451.63l194.65 -114.99c47,-28.92 72.42,-46.14 76.38,-51.7 3.88,-5.67 5.73,-12.3 5.33,-19.74 -0.2,-7.38 -8.07,-29.91 -23.36,-67.21l26.36 -15.31c19.81,39.73 37.94,73.76 54.52,102.32 16.02,27.57 37.64,62.01 64.96,103.43l-26.36 15.31c-5.71,-6.48 -9.88,-11.4 -12.3,-14.72 -20.7,-25.52 -35.04,-39.54 -43.29,-41.94 -8.3,-2.51 -20.77,0.48 -37.32,8.79 -34.57,17.46 -103.84,56.38 -207.81,116.75 -66.88,38.84 -142.58,84.11 -227.36,135.95 -9.79,-9 -20.08,-17.71 -30.83,-25.83l93.32 -235.81 133.08 -354.21 -170 100.68 -164.39 99.37c-12.14,8.04 -19.24,13.79 -21.49,17.22 -2.3,3.62 -3.45,7.55 -3.63,11.73 0.07,7.15 5.65,26.59 17.05,58.32 1.38,3.77 3.05,9.48 5.13,17.26l-26.36 15.3c-21.44,-42.54 -39.35,-76.2 -53.81,-101.09 -12.33,-21.23 -34.53,-56.65 -66.52,-106.12l26.36 -15.31c5.84,6.41 10.31,11.31 13.36,14.59 20.15,24.86 33.8,38.8 40.81,41.59 4.66,1.86 9.78,1.98 15.52,0.61 5.73,-1.37 41.97,-20.46 108.98,-57.09 97.05,-52.93 179.83,-99.21 248.16,-138.89 22.83,-13.25 36.89,-23.05 41.74,-29.29 5.05,-6.19 7.51,-13.5 7.29,-22.02 -0.03,-8.47 -5.3,-27.11 -15.63,-55.87 -1.61,-4.45 -3.99,-11.07 -6.81,-19.87z"/>
   <path class="fil3" d="M2549.99 4685.22l-25.67 -16.44c43.95,-63.34 72.31,-105 84.95,-124.73 16.9,-26.37 40.84,-66.34 71.73,-119.79l25.66 16.44c-11.41,33.25 -16.81,52.93 -16.18,59.01 0.61,6.1 3.52,10.98 8.63,14.26 4.87,3.11 13.03,5.82 24.49,8.31l327.76 75.43 -136.97 -179.1 -78.48 -99.05c-2.68,-2.89 -5.46,-5.35 -8.19,-7.1 -5.35,-3.43 -11.53,-3.2 -18.74,0.73 -1.5,1.05 -16.43,13.61 -44.64,37.77l-25.79 -16.53c26.51,-36.13 46.51,-64.72 60.06,-85.87 12.33,-19.25 29.19,-48.17 50.48,-86.65l25.67 16.44c-9.58,26.72 -14.01,45.68 -13.3,56.86 0.16,6.3 2.44,13.46 6.76,21.09 4.46,7.71 45.31,65.56 122.67,173.45 54.8,75.84 126.11,171.98 213.71,288.45l-21 32.78 -349 -72.6c-128.14,-24.96 -198.95,-37.65 -211.95,-38.27 -7.33,-0.34 -14.04,0.72 -20.23,3.3 -8.86,3.37 -26.22,17.38 -52.43,41.81z"/>
   <path class="fil3" d="M12949.9 5796.34l-27.77 12.56c-21.78,-31.35 -37,-50.64 -45.69,-57.86 -4.35,-3.45 -10.1,-4.87 -17.44,-4.33 -7.3,0.66 -27.1,8.22 -59.5,22.88 -51.82,23.44 -97.22,44.59 -136.48,63.59 -10.7,-15.77 -22.86,-32.72 -36.29,-51.11 -35.65,-47.99 -60.18,-83.05 -73.9,-105.18 -13.54,-22.06 -26.48,-46.57 -38.63,-73.44 -28.26,-62.48 -42.82,-115.53 -43.71,-158.95 -0.73,-54.34 14.29,-102.95 44.89,-145.91 30.53,-42.76 74.42,-77.18 131.77,-103.12 101.82,-46.05 197.23,-43.98 286.21,6.21 63.59,36.14 115.36,98.21 155.19,186.27 26.75,59.14 48.38,129.59 64.78,211.37 -15.14,6.23 -27.21,11.39 -36.21,15.46 -29.44,13.31 -70.65,33.5 -123.49,60.49l-17.09 -37.79c37.01,-29.45 61.11,-53.21 72.61,-71.26 11.38,-18 16.8,-40.58 16.26,-67.44 -0.52,-26.86 -8.08,-56.59 -22.8,-89.12 -19.25,-42.56 -43.9,-74.14 -74.17,-94.84 -30.32,-20.81 -67.2,-30.77 -110.68,-30 -43.41,0.59 -88.87,11.7 -136.06,33.05 -75.46,34.13 -124.52,77.69 -147.17,130.68 -22.65,52.98 -20.95,108.43 5.27,166.42 13.15,29.05 33.95,57.58 62.23,85.52l116.1 -52.51c25.32,-11.45 41.06,-20.12 47.29,-25.88 3.69,-3.83 5.72,-8.93 6.22,-15.35 0.38,-6.37 -2.65,-24.36 -9.39,-53.98 -0.7,-3.25 -1.64,-8.4 -2.94,-15.4l27.77 -12.56c23.6,59.02 41.96,103.05 55.16,132.24 9.65,21.34 32.23,67.81 67.66,139.29z"/>
   <path class="fil3" d="M2125.42 5558.05l-27.81 -12.47c23.03,-44.43 45.17,-90.33 66.31,-137.45 22.02,-49.06 42.57,-98.3 61.6,-147.61l27.81 12.47c-10.53,41.06 -15.95,65.55 -15.94,73.44 -0.16,7.97 2.26,14.62 7.15,19.92 4.84,5.41 22.55,14.9 53.19,28.65l25.83 12.06 96.78 43.89c17.09,-35.33 34.76,-73.33 53.02,-114.03 16.47,-36.69 30.33,-68.98 41.6,-96.86l-134.24 -59.31c-23.82,-10.68 -39.38,-15.97 -46.65,-15.99 -7.33,0.12 -14.14,3.25 -20.75,9.72 -5.11,4.82 -19.13,24.36 -41.97,58.35l-27.81 -12.48c24.36,-47.39 45.63,-91.35 63.95,-132.17 17.1,-38.11 38.34,-88.9 63.61,-152.11l27.81 12.48 -14.34 66.42c-1.26,7.31 -1.15,12.93 0.08,16.74 1.42,3.73 3.58,7.17 6.92,10.07 7.09,6.26 32.53,19.54 76.08,39.7 69.16,31.65 114.36,52.24 135.49,61.71 85.99,38.59 149.81,66.31 191.33,83.07 13.74,5.55 24.66,6.74 32.72,3.24 8.01,-3.37 22.13,-20.69 42.48,-51.93l8.96 -13.77 27.81 12.48c-26.32,51.76 -48.75,98.31 -67.29,139.64 -18.31,40.81 -38.29,88.77 -59.92,143.87l-27.81 -12.48 15.32 -68.61c0.9,-8.56 -0.58,-15.57 -4.3,-21.1 -3.76,-5.4 -14.65,-12.14 -32.81,-20.29l-165.99 -75.41 -48.12 103.07c-2.13,4.77 -17.62,40.66 -46.51,107.82 102.98,45.9 164.74,72.68 185.54,80.47 11.16,4.07 20.46,4.38 28.02,0.96 7.57,-3.41 21.06,-20.39 40.44,-50.82 2.13,-3.39 5.46,-8.38 10.04,-15.15l27.81 12.48c-27.71,54.85 -51.46,104.35 -71.4,148.78 -20.44,45.57 -39.26,90.95 -56.51,136.27l-27.81 -12.47c8.78,-37.84 13.56,-60.9 14.41,-69.33 0.66,-8.36 -0.97,-15.44 -4.98,-20.96 -3.97,-5.64 -15.12,-12.5 -33.53,-20.76l-146.3 -67.96c-76.73,-34.43 -142.43,-63.45 -197.24,-87.11 -26.78,-11.71 -44.49,-17.03 -52.98,-16.05 -5.42,0.36 -10.56,2.85 -15.67,7.36 -4.99,4.56 -19.44,24.37 -43.43,59.55z"/>
   <path class="fil3" d="M12973.99 6681.44l-33.87 29.53c-41.39,-39.39 -73.02,-77.27 -94.91,-113.79 -21.86,-36.37 -37.68,-76.02 -47.61,-119.06 -20.95,-90.75 -11.6,-168.21 28.24,-232.15 39.7,-63.91 103.42,-105.99 191,-126.21 93.09,-21.48 174.79,-9.49 244.96,36.02 70.34,45.6 117.35,120.05 141.25,223.58 7.62,33 12.39,65.64 14.28,97.65 1.85,31.87 0.91,72.35 -2.91,121.02 -17.73,2.93 -36.13,6.6 -54.98,10.95 -32.58,7.52 -71.93,18.35 -118.33,32.52l-10.29 -44.54c48.58,-25.41 76.94,-41.22 84.87,-47.68 17.93,-14.57 31.19,-34.87 39.99,-60.79 8.78,-25.92 8.69,-58.34 -0.23,-96.99 -13.58,-58.84 -42.1,-100.19 -85.52,-123.92 -52.23,-28.64 -116.51,-34.22 -192.96,-16.58 -79.06,18.25 -134.71,51.38 -167.17,99.56 -32.34,48.16 -40.97,104.89 -25.9,170.2 13.43,58.17 43.47,111.77 90.09,160.68z"/>
   <path class="fil3" d="M2536.31 6072.29l-29.3 -8.38c3.42,-33.95 4.02,-54.03 1.66,-60.15 -2.23,-6.07 -6.51,-10.08 -13.02,-11.94 -3.66,-1.05 -8.1,-1.44 -13.41,-1.34 -12.37,1.15 -49.67,5.3 -111.93,12.58 -11.18,37.01 -20.3,67.87 -27.37,92.56 -5.83,20.35 -15.23,54.21 -28.24,101.7 60.91,49.74 94.77,75.57 101.42,77.48 6.37,1.82 11.61,0.97 15.93,-2.34 4.19,-3.36 14.3,-20.72 30.22,-52.26l29.3 8.39c-12.26,32.59 -22.78,64.22 -31.52,94.74 -9.39,32.83 -17.63,66.73 -24.63,101.43l-29.3 -8.39c1.82,-25.32 0.81,-43.36 -3,-54.14 -2.45,-7.31 -7.23,-14.69 -14.34,-22.16 -13.74,-15.09 -69.6,-64.54 -167.66,-148.1 -62.04,-52.98 -154.27,-129.73 -276.72,-230.1l9.08 -31.75c69.34,-6.86 200.35,-24.55 392.78,-53.28 107,-15.9 168.07,-26.16 183.54,-30.98 10.72,-3.1 18.76,-7.1 24.06,-11.75 5.29,-4.66 16.33,-21.17 33.07,-49.4l29.3 8.39c-16.11,46.03 -29.93,89.19 -41.42,129.34 -11.34,39.62 -24.16,89.53 -38.5,149.85zm-425.73 -40.25l163.94 133.38 22.21 -77.6c5.32,-18.58 12.93,-45.17 22.87,-79.9l-209.02 24.12z"/>
   <path class="fil3" d="M13430.73 6711.16l30.25 -3.7c5.28,66.31 12.66,138.2 22.12,215.51 10.99,89.79 23.71,182.06 38.17,276.97 -57.33,7.86 -106.75,17.6 -148.26,29.22l-4.31 -35.15c8.3,-4.28 14.72,-7.49 19.18,-9.45 37.41,-18.37 58.82,-31.65 64.18,-40.13 5.34,-8.62 6.32,-26.22 3.01,-53.26l-19.34 -157.99c-46.33,3.68 -113.43,10.61 -201.32,20.81l7.95 71.95c4.58,37.39 11.05,60.07 19.4,67.86 8.21,7.81 33.69,13.93 76.47,18.49l4.22 34.47c-40.54,2.12 -76.15,5.06 -106.82,8.81 -29.27,3.58 -65.66,9.46 -109.16,17.62l-4.22 -34.46c43.18,-13.1 67.48,-23.61 73.19,-31.55 5.71,-7.96 6.28,-30.06 1.87,-66.06l-9.91 -80.96 -229.43 28.09 20.08 164.01c2.23,18.22 4.82,30.12 7.79,35.87 4.69,9.24 12.2,17.14 22.28,24 20.54,14.54 52.08,30.59 94.9,48.24l4.44 36.28c-47.04,-10.31 -103.48,-20.75 -169.31,-31.31 -8.63,-93.77 -19.17,-191.43 -31.63,-293.25 -5.68,-46.37 -14.98,-110.77 -27.93,-193.34l30.25 -3.7c13.78,44.08 23.52,69.05 29.21,74.89 7.4,8.19 23.78,10.74 49.27,7.62l13.87 -1.7 162.82 -18.22 131.38 -16.08 60.59 -9.12c29.27,-3.59 47.29,-7.36 54.07,-11.18 6.79,-3.81 11.69,-10.24 14.7,-19.28 3.16,-9.06 5.11,-32.62 5.98,-70.82z"/>
   <path class="fil3" d="M1771.71 6929.42l-30.39 -5.58c19.58,-91.09 30.9,-144.97 33.93,-161.48 3.24,-17.63 7.49,-43.11 12.76,-76.57 5.3,-33.6 9.37,-58.11 12.28,-73.94 7.38,-40.24 18.3,-70.81 32.69,-91.41 14.55,-20.57 34.24,-35.61 59.24,-45.23 25.01,-9.61 51.38,-11.8 78.99,-6.73 23.6,4.33 45.48,13.37 65.48,27.07 19.99,13.86 36.19,30.32 48.34,49.34 8.06,12.38 15.78,31.3 23.16,56.76 35.16,-12.63 84.94,-31.33 149.62,-56.19 47.26,-18.3 75.91,-30.55 85.85,-37.04 9.8,-6.53 17.91,-13.93 24.17,-22.25 9.12,-12.97 20.1,-37.63 32.94,-74.01l29.98 5.5c-11.2,45.43 -19.46,82.65 -24.79,111.66 -5.6,30.53 -11.12,68.41 -16.54,113.61 -82.26,19.04 -177.2,45.38 -284.8,79.01 -3.43,15.58 -7.55,31.75 -12.34,48.52l169.63 29.41c20.92,3.26 34.28,4 39.83,1.85 5.53,-1.99 9.91,-5.49 13.13,-10.5 2.48,-3.42 12.16,-26.46 29.06,-69.27l29.98 5.5c-14.37,62.64 -25.05,113.05 -32.06,151.23 -6.9,37.61 -14.71,87.97 -23.42,151.07l-29.98 -5.5c-0.01,-47.64 -1.63,-74.76 -5.27,-81.45 -3.52,-6.67 -11.85,-12.08 -25.15,-16.24 -7.2,-2.18 -76.5,-15.47 -208.17,-39.93l-121.24 -21.81c-56.91,-10.44 -91.37,-15.76 -103.39,-15.96 -8.63,0.13 -15.71,2.71 -20.94,7.78 -5.23,5.07 -13.77,23.44 -25.47,55.16l-7.11 17.62zm274.84 -167.78c3.04,-13.5 5.15,-23.44 6.35,-29.96 6.95,-37.9 3.08,-67.59 -11.65,-88.95 -14.74,-21.35 -40.56,-35.42 -77.47,-42.19 -34.7,-6.37 -62.8,-2.63 -84.25,11.08 -21.46,13.72 -34.87,35.21 -40.24,64.5 -2.19,11.93 -4.19,27.49 -6.01,46.81l213.27 38.71z"/>
   <path class="fil3" d="M13490.62 7317.07l30.46 -0.92c-1.68,37.89 -2.03,73.05 -1.05,105.63 0.99,32.72 3.56,71.33 7.72,115.66 -44.4,34.95 -166.89,139.85 -367.3,314.72l225.89 -8.49c55.1,-3.07 85.65,-6.11 91.77,-9.12 6.12,-3.15 10.91,-8.09 14.1,-14.83 3.32,-6.59 7.14,-30.14 11.43,-70.21l30.47 -0.92c-1.49,44.36 -1.74,82.92 -0.74,115.92 0.96,31.87 3.59,72.45 7.9,121.87l-30.47 0.92c-1.94,-8.42 -3.26,-14.73 -3.81,-18.81 -6.05,-32.28 -11.99,-51.44 -18.1,-57.47 -6.12,-6.17 -18.5,-9.46 -37.01,-10.04 -38.71,-1.09 -118.15,0.17 -238.32,3.79 -77.29,2.33 -165.41,6.11 -264.63,11.36 -4.34,-12.58 -9.23,-25.13 -14.83,-37.38l194.29 -162.97 285.59 -248.17 -197.4 7.63 -191.86 9.17c-14.5,1.29 -23.49,2.97 -27.1,4.91 -3.75,2.09 -6.62,5 -8.78,8.6 -3.34,6.31 -7.67,26.06 -12.74,59.39 -0.59,3.97 -1.83,9.8 -3.7,17.62l-30.47 0.92c1.39,-47.63 1.65,-85.74 0.78,-114.52 -0.74,-24.54 -3.4,-66.25 -7.99,-124.98l30.46 -0.91c2.09,8.41 3.69,14.85 4.81,19.19 5.89,31.45 11.25,50.2 16.09,55.98 3.22,3.86 7.67,6.41 13.36,7.93 5.7,1.52 46.65,1.98 123.02,1.66 110.51,-0.37 205.34,-1.66 284.32,-4.04 26.38,-0.79 43.4,-2.73 50.65,-5.91 7.39,-3.04 13.01,-8.29 16.89,-15.89 4,-7.47 8.24,-26.36 12.83,-56.57 0.71,-4.69 1.77,-11.63 3.47,-20.72z"/>
   <path class="fil3" d="M2021.7 7024.19l30.39 2.31c4.04,37.95 8.14,62.18 12.29,72.69 2.16,5.12 6.52,9.13 13.23,12.19 6.7,2.92 27.72,5.79 63.17,8.5 56.7,4.32 106.7,7.56 150.26,9.74 1.81,18.97 4.33,39.68 7.29,62.27 8.22,59.21 12.9,101.74 14.31,127.74 1.29,25.86 0.87,53.57 -1.37,82.97 -5.21,68.38 -17.92,121.9 -37.98,160.42 -25.46,48.02 -61.98,83.45 -109.44,106.44 -47.31,22.85 -102.35,31.96 -165.1,27.18 -111.44,-8.5 -194.14,-56.13 -248.09,-142.89 -38.42,-62.22 -54.03,-141.53 -46.68,-237.91 4.93,-64.72 19.77,-136.9 44.66,-216.52 16.28,1.82 29.34,3.09 39.19,3.84 32.22,2.46 78.05,4.54 137.37,6.22l-3.16 41.37c-46.6,8.05 -79.15,17.31 -97.91,27.64 -18.62,10.32 -34.22,27.53 -46.66,51.35 -12.42,23.82 -20.06,53.52 -22.78,89.12 -3.55,46.57 2.92,86.12 19.53,118.81 16.6,32.82 44.16,59.26 82.68,79.46 38.36,20.33 83.57,32.41 135.21,36.35 82.59,6.3 146.54,-8.37 191.85,-43.97 45.31,-35.61 70.45,-85.06 75.29,-148.51 2.42,-31.8 -2.13,-66.82 -13.52,-104.91l-127.05 -9.69c-27.72,-2.11 -45.69,-2.07 -53.91,0 -5.08,1.59 -9.31,5.09 -12.84,10.49 -3.38,5.4 -9.36,22.63 -17.68,51.85 -0.94,3.19 -2.6,8.16 -4.81,14.92l-30.39 -2.31c7.64,-63.11 12.67,-110.55 15.1,-142.49 1.78,-23.36 4.3,-74.96 7.55,-154.67z"/>
   <path class="fil3" d="M13286.39 8609.37l4.67 -38.11c60.16,-11.83 94.34,-19.3 102.59,-22.69 8.21,-3.27 14.39,-8.48 18.41,-15.8 4.17,-7.31 8.68,-31.36 13.7,-72.39l4.87 -39.79 -383.36 -46.92c-47.62,-5.83 -76.55,-7.67 -86.89,-5.66 -5.38,1.04 -10.06,4.45 -13.93,10.52 -4,5.91 -12.33,29.91 -25.28,71.82l-30.26 -3.7c13,-82.99 20.95,-136.32 23.85,-160 3.94,-32.22 8.58,-81.69 13.91,-148.43l30.25 3.71c2.34,44.78 5.17,71.57 8.52,80.23 2.27,5.82 6.85,10.22 13.6,13.17 6.74,2.97 35.19,7.45 85.62,13.62l379.3 46.43 8.45 -69.06c2.85,-23.25 2.78,-38.9 -0.08,-46.92 -3.01,-7.91 -9.11,-15.05 -18.73,-21.21 -14.5,-9.3 -44.05,-23.44 -88.77,-42.56l4.58 -37.4c39.76,9.7 67.14,16.04 82.41,19.04 15.26,3.01 44.95,7.92 89.17,14.76 -16.05,107.93 -30.12,213.54 -42.35,316.96 -9.86,87.5 -16.43,150.53 -19.57,188.96 -52.98,-6.2 -111.21,-9.07 -174.68,-8.58z"/>
   <path class="fil3" d="M1774.3 8461.07l-30.39 2.32c-2.09,-64.52 -4.61,-116.12 -7.56,-154.81 -2.95,-38.7 -8.23,-89.53 -15.86,-152.49l30.39 -2.31c9.68,39.74 17.22,64.49 22.64,74.27 3.32,6.4 7.59,10.46 12.97,12.31 7.1,2.15 25.35,2.18 54.76,-0.06l211.2 -16.1c54.45,-4.15 91.22,-9.93 110.33,-17.48 25.29,-9.71 44.85,-26.05 58.94,-49.21 13.94,-23.13 19.45,-54.83 16.39,-94.93 -3.37,-44.18 -14.91,-76.84 -34.64,-97.98 -19.72,-21.14 -44.6,-33.68 -74.49,-37.91 -29.9,-4.23 -80.66,-3.62 -152.14,1.83 -16.47,1.26 -62.95,5.93 -139.19,13.87 -42.24,4.63 -66.99,8.64 -74.23,11.89 -4.24,2.01 -7.4,5.22 -9.62,9.49 -3.11,5.48 -6.54,23.72 -9.98,54.69 -0.43,3.56 -1.15,9 -2.01,16.28l-30.39 2.32c-1.61,-58.18 -3.35,-99.52 -5.19,-123.72 -2.18,-28.56 -6.44,-65.88 -12.77,-111.81l30.4 -2.32c10.92,41.19 18.96,64.93 24.1,71.19 5.15,6.26 12.35,9.67 21.6,10.38 15.52,1.22 85.71,-2.43 210.29,-11.08 71.53,-4.88 118.66,-6.64 141.11,-5.38 30.89,2.32 56.23,7.89 76.15,16.84 19.92,8.82 38.8,22.52 56.5,41.27 17.84,18.59 31.34,39.78 40.5,63.42 12.14,31.06 19.51,64.75 22.27,101.05 4.67,61.21 -0.48,110.56 -15.47,147.94 -14.98,37.36 -36.28,64.18 -64.06,80.45 -27.61,16.4 -69.15,26.64 -124.44,30.86l-254.95 19.43c-32.65,2.49 -53.2,5.75 -61.54,9.64 -5.29,2.95 -9.06,7.48 -11.4,13.89 -2.2,6.4 -5.6,30.42 -10.22,71.96z"/>
   <path class="fil3" d="M13422.79 8714.92l30.1 7c-23.84,90.07 -37.68,143.35 -41.48,159.71 -4.06,17.46 -9.5,42.71 -16.35,75.88 -6.87,33.32 -12.09,57.61 -15.73,73.27 -9.27,39.86 -21.61,69.88 -36.96,89.78 -15.49,19.87 -35.86,33.96 -61.29,42.39 -25.43,8.43 -51.87,9.38 -79.22,3.02 -23.37,-5.43 -44.79,-15.48 -64.14,-30.13 -19.3,-14.77 -34.72,-31.97 -45.96,-51.54 -7.46,-12.75 -14.29,-32 -20.46,-57.78 -35.72,10.96 -86.32,27.3 -152.09,49.09 -48.07,16.06 -77.25,26.95 -87.5,32.97 -10.09,6.06 -18.54,13.07 -25.18,21.09 -9.73,12.52 -21.85,36.64 -36.39,72.38l-29.68 -6.91c13.32,-44.85 23.33,-81.64 30.01,-110.37 7.03,-30.23 14.31,-67.8 21.86,-112.69 83.06,-15.16 179.12,-37.02 288.19,-65.55 4.15,-15.4 9.02,-31.36 14.6,-47.89l-168.06 -37.35c-20.74,-4.24 -34.04,-5.59 -39.7,-3.71 -5.61,1.73 -10.15,5.02 -13.6,9.87 -2.64,3.3 -13.39,25.86 -32.28,67.82l-29.68 -6.9c17.28,-61.89 30.32,-111.75 39.11,-149.54 8.66,-37.24 18.83,-87.18 30.5,-149.8l29.68 6.9c-2.23,47.58 -1.87,74.75 1.45,81.61 3.19,6.83 11.26,12.62 24.35,17.4 7.09,2.52 75.68,19.04 206.06,49.65l120.08 27.49c56.35,13.11 90.53,20.04 102.52,20.8 8.63,0.27 15.81,-1.98 21.28,-6.78 5.46,-4.82 14.85,-22.77 28.03,-53.9l7.93 -17.28zm-282.4 154.68c-3.68,13.34 -6.26,23.17 -7.77,29.64 -8.72,37.52 -6.24,67.36 7.47,89.38 13.71,22.02 38.85,37.28 75.41,45.78 34.36,8 62.59,5.58 84.67,-7.1 22.07,-12.69 36.48,-33.53 43.23,-62.54 2.75,-11.81 5.47,-27.27 8.2,-46.48l-211.21 -48.68z"/>
   <path class="fil3" d="M1915.54 9189.34l-29.98 5.51c-4.05,-37.71 -9.01,-72.53 -14.89,-104.58 -5.91,-32.21 -14.28,-69.99 -25.07,-113.2 38.63,-41.23 143.89,-163.41 315.65,-366.53l-222.04 42.47c-54.02,11.35 -83.75,18.95 -89.35,22.86 -5.57,4.03 -9.57,9.64 -11.69,16.77 -2.31,7.02 -2.52,30.88 -0.72,71.15l-29.98 5.5c-5.23,-44.09 -10.79,-82.23 -16.75,-114.71 -5.76,-31.38 -14.48,-71.09 -26.2,-119.3l29.98 -5.5c3.19,8.02 5.45,14.07 6.6,18.01 10.86,31.01 19.63,49.06 26.57,54.1 6.98,5.17 19.72,6.56 38.1,4.34 38.44,-4.76 116.79,-18 235.05,-39.7 76.06,-13.95 162.6,-30.97 259.91,-51.13 6.17,11.78 12.91,23.45 20.29,34.73l-167.5 190.42 -244.92 288.41 194.01 -37.32 188.3 -38c14.13,-3.46 22.76,-6.47 26.04,-8.94 3.39,-2.63 5.8,-5.94 7.38,-9.82 2.35,-6.74 3.67,-26.92 3.65,-60.65 -0.02,-4.01 0.33,-9.95 1.01,-17.96l29.98 -5.5c5.8,47.28 11.29,85 16.49,113.32 4.43,24.15 13.36,64.98 26.75,122.35l-29.98 5.5c-3.32,-8 -5.88,-14.13 -7.64,-18.25 -10.57,-30.2 -18.7,-47.93 -24.35,-52.92 -3.77,-3.33 -8.55,-5.17 -14.41,-5.81 -5.86,-0.66 -46.42,5.07 -121.86,16.9 -109.21,17.03 -202.77,32.62 -280.5,46.89 -25.94,4.76 -42.49,9.23 -49.17,13.46 -6.85,4.13 -11.62,10.17 -14.29,18.26 -2.85,7.99 -4.18,27.32 -4.17,57.87 0.01,4.73 0.01,11.77 -0.3,21z"/>
   <path class="fil3" d="M13263.58 9366.5l28.9 9.7c-23.81,62.11 -48.12,130.16 -72.89,204.01 -28.77,85.76 -57.05,174.51 -84.89,266.38 -55.12,-17.6 -103.91,-30.09 -146.38,-37.49l11.26 -33.58c9.33,-0.29 16.51,-0.42 21.38,-0.27 41.68,-0.46 66.71,-3.22 75.2,-8.56 8.54,-5.48 17,-20.94 25.67,-46.77l50.61 -150.91c-43.39,-16.64 -106.93,-39.29 -190.64,-67.96l-23.83 68.36c-11.98,35.72 -15.9,58.97 -11.73,69.6 4.05,10.58 24.41,27.08 61.05,49.64l-11.05 32.91c-37.5,-15.55 -70.89,-28.24 -100.19,-38.06 -27.96,-9.38 -63.33,-19.76 -106.1,-31.13l11.04 -32.92c44.61,6.78 71.07,7.77 79.64,3.06 8.58,-4.72 18.61,-24.42 30.15,-58.81l25.93 -77.33 -219.14 -73.5 -52.54 156.67c-5.84,17.39 -8.63,29.25 -8.42,35.72 0.25,10.36 3.62,20.72 9.76,31.26 12.27,21.97 33.82,50.04 64.86,84.42l-11.63 34.65c-38,-29.57 -84.44,-63.31 -139.29,-101.2 32.6,-88.34 65.17,-181.01 97.79,-278.27 14.85,-44.28 34.21,-106.41 58.09,-186.5l28.9 9.69c-6.56,45.72 -8.53,72.45 -5.91,80.17 3.15,10.58 16.83,19.94 41.18,28.1l13.25 4.45 154.78 53.7 125.49 42.09 58.61 17.87c27.96,9.38 45.84,13.73 53.61,13.22 7.77,-0.52 14.96,-4.22 21.57,-11.08 6.76,-6.81 18.67,-27.23 35.91,-61.33z"/>
   <path class="fil3" d="M2561.25 9369.52l-28.78 10.02c-16.78,-29.72 -27.84,-46.49 -33.3,-50.11 -5.31,-3.68 -11.12,-4.49 -17.52,-2.27 -3.59,1.26 -7.45,3.49 -11.74,6.63 -9.44,8.07 -37.53,32.94 -84.24,74.76 12.19,36.7 22.51,67.17 30.96,91.43 6.95,19.99 18.78,53.08 35.5,99.41 78.45,5.56 121,7.17 127.53,4.9 6.26,-2.18 10.05,-5.9 11.68,-11.09 1.49,-5.16 -0.25,-25.17 -5.41,-60.14l28.79 -10.02c8.75,33.71 18.37,65.62 28.82,95.61 11.23,32.25 24.02,64.7 38.29,97.09l-28.78 10.03c-13.1,-21.74 -24.32,-35.91 -33.64,-42.53 -6.22,-4.56 -14.38,-7.84 -24.51,-9.85 -19.91,-4.42 -94.05,-12.66 -222.35,-24.48 -81.23,-7.56 -200.83,-17.17 -358.74,-28.66l-10.86 -31.19c52.72,-45.56 149.61,-135.49 290.35,-269.82 78.31,-74.65 122.31,-118.21 132.18,-131.06 6.98,-8.71 11.25,-16.62 12.9,-23.47 1.65,-6.85 1.16,-26.7 -1.42,-59.42l28.78 -10.02c13.35,46.9 26.91,90.14 40.65,129.59 13.55,38.9 31.82,87.08 54.86,144.66zm-371.19 212.35l210.85 14.59 -26.55 -76.23c-6.35,-18.25 -15.45,-44.38 -27.33,-78.5l-156.97 140.14z"/>
   <path class="fil4" d="M4890.53 12061.57l15.27 -26.38c44.63,29.09 89.47,56.67 134.29,82.62 45.93,26.58 91.45,51.3 136.83,74.31l-15.27 26.38 -66.23 -22.19c-8.89,-1.55 -16.26,-0.93 -22.07,2.06 -5.8,3 -13.54,12.7 -23.16,29.31l-94.89 162.25c112.65,-28.71 195.7,-53.03 248.96,-73.23 25.44,-9.57 39.63,-17.17 42.95,-22.91 2.33,-4.03 1.72,-8.63 -2.08,-13.6 -1.63,-2.25 -14.87,-14.31 -39.52,-36.24l15.27 -26.38c44.03,28.74 80.08,51.24 108.05,67.43 28.08,16.25 63.36,35.04 105.92,56.42l-15.27 26.38c-37.34,-14.92 -63.29,-22.77 -77.6,-23.39 -14.43,-0.7 -40.07,3.87 -77.14,13.55l-195.93 54.85c5.04,34.39 13.22,83.63 24.85,147.76 9.96,53.21 17.57,98.38 22.96,135.25 5.27,36.8 12.65,64.06 22.07,81.58 9.43,17.52 30.41,41.57 62.83,71.75l-15.27 26.38c-44.63,-29.1 -90.46,-57.25 -137.6,-84.54 -47.63,-27.57 -94.13,-52.86 -139.39,-75.8l15.27 -26.38c23.15,10.15 38.92,15.03 47.48,14.61 5.34,-0.5 9.22,-2.98 11.84,-7.49 2.19,-3.79 2.27,-13.52 0.19,-29.08l-34.57 -267.03 -13.91 24.89 -65.11 112.48c-20.43,35.29 -31.7,57.3 -34.08,66.2 -1.53,5.47 -0.62,11.22 2.93,17.18 3.49,6.09 19,20.13 46.42,42.36 2.77,2.25 6.91,5.79 12.43,10.61l-15.27 26.38c-44.14,-28.8 -84.58,-53.84 -121.11,-74.98 -30.77,-17.82 -80.82,-45.16 -150.01,-81.95l15.27 -26.38c44.7,16.58 71.85,24.32 81.34,23.12 6.43,-0.68 12.66,-5.23 18.35,-13.68 8.29,-11.5 48.42,-79.41 120.39,-203.74 60.79,-105.03 93.81,-163.19 99.01,-174.7 5.19,-11.51 6.72,-20.08 4.68,-25.83 -3.2,-8.85 -23.29,-28.8 -60.37,-60.21zm565.8 319.49l12.42 -27.84c57.75,28.85 104.34,51.17 139.78,66.97 35.44,15.81 82.67,35.33 141.68,58.56l-12.41 27.84c-39.56,-10.38 -64.93,-15.51 -76.11,-15.4 -7.2,-0.12 -12.8,1.71 -16.99,5.55 -5.27,5.22 -13.97,21.28 -25.98,48.21l-86.28 193.45c-22.24,49.87 -34.65,84.97 -37.1,105.35 -3.49,26.88 1.6,51.86 15.26,75.26 13.73,23.27 38.99,43.19 75.73,59.57 40.46,18.04 74.68,23.42 102.66,16.12 27.97,-7.3 50.84,-23.21 68.77,-47.5 17.95,-24.3 41.55,-69.24 70.75,-134.71 6.72,-15.08 24.71,-58.2 53.99,-129.04 16.01,-39.37 24.25,-63.04 24.84,-70.96 0.25,-4.69 -1.09,-8.98 -3.79,-12.97 -3.33,-5.35 -17.74,-17.03 -43.35,-34.78 -2.94,-2.09 -7.37,-5.31 -13.37,-9.53l12.41 -27.83c51.95,26.25 89.14,44.38 111.31,54.27 26.15,11.66 61.01,25.67 104.43,41.94l-12.42 27.84c-41.43,-9.98 -66.13,-14.2 -74.08,-12.64 -7.95,1.54 -14.38,6.25 -19.41,14.05 -8.45,13.07 -38.62,76.57 -90.26,190.28 -29.71,65.23 -50.58,107.54 -62.38,126.68 -16.71,26.08 -33.66,45.71 -51.01,58.99 -17.24,13.32 -38.26,23.42 -63.17,30.08 -24.85,6.84 -49.9,8.64 -75.06,5.46 -33.1,-4.1 -66.24,-13.63 -99.48,-28.46 -56.07,-25 -97.03,-53.01 -122.78,-83.96 -25.76,-30.95 -39.22,-62.45 -40.32,-94.61 -1.29,-32.09 9.45,-73.51 32.04,-124.15l104.15 -233.53c13.33,-29.9 20.24,-49.53 20.77,-58.72 -0.08,-6.05 -2.27,-11.51 -6.79,-16.63 -4.58,-4.97 -24.1,-19.39 -58.45,-43.21zm542.88 237.07l8.66 -29.66c88.61,28.81 141.04,45.58 157.17,50.29 17.2,5.02 42.1,11.86 74.85,20.54 32.88,8.72 56.84,15.27 72.28,19.78 39.28,11.47 68.56,25.46 87.58,41.89 18.98,16.56 31.93,37.69 38.93,63.55 7.01,25.86 6.48,52.31 -1.39,79.27 -6.72,23.02 -17.95,43.86 -33.64,62.36 -15.83,18.46 -33.86,32.89 -54.02,43.03 -13.14,6.75 -32.75,12.48 -58.84,17.22 8.97,36.28 22.47,87.7 40.58,154.58 13.36,48.89 22.61,78.64 28.05,89.2 5.49,10.41 12.03,19.24 19.66,26.31 11.96,10.41 35.37,23.86 70.25,40.36l-8.54 29.26c-44.05,-15.8 -80.23,-27.84 -108.54,-36.1 -29.8,-8.7 -66.91,-18.07 -111.32,-28.1 -10.52,-83.77 -26.99,-180.9 -49.42,-291.38 -15.15,-5.01 -30.82,-10.76 -47.01,-17.25l-46.62 165.73c-5.39,20.48 -7.48,33.69 -5.93,39.43 1.42,5.71 4.46,10.42 9.11,14.13 3.14,2.83 25.07,14.81 65.93,36l-8.54 29.26c-60.85,-20.7 -109.89,-36.49 -147.14,-47.37 -36.71,-10.71 -86,-23.64 -147.88,-38.77l8.54 -29.26c47.38,4.88 74.53,6.03 81.56,3.1 7,-2.81 13.23,-10.55 18.73,-23.35 2.91,-6.94 23.22,-74.52 61.02,-202.98l34.12 -118.37c16.22,-55.54 25.04,-89.27 26.47,-101.21 0.74,-8.6 -1.1,-15.9 -5.59,-21.63 -4.51,-5.72 -21.91,-16.09 -52.26,-30.98l-16.81 -8.88zm138.75 290.57c13.12,4.42 22.8,7.53 29.16,9.39 36.98,10.8 66.92,9.99 89.66,-2.48 22.76,-12.47 39.39,-36.72 49.91,-72.75 9.89,-33.86 9.04,-62.19 -2.4,-84.93 -11.43,-22.75 -31.45,-38.29 -60.03,-46.64 -11.65,-3.4 -26.92,-6.98 -45.96,-10.77l-60.34 208.18zm362.19 -135.21l5.62 -29.96c62.86,14.65 113.37,25.55 151.51,32.7 38.14,7.14 88.61,15.16 151.4,24.06l-5.61 29.96c-40.89,-0.92 -66.76,-0.02 -77.6,2.68 -7.04,1.56 -12.06,4.64 -15.24,9.36 -3.91,6.29 -8.65,23.93 -14.08,52.92l-39.01 208.19c-10.06,53.67 -13.98,90.69 -11.63,111.09 2.85,26.95 13.59,50.06 32.32,69.66 18.75,19.44 47.95,32.95 87.48,40.36 43.54,8.16 78.08,5.44 103.6,-8.15 25.51,-13.59 44.06,-34.38 55.87,-62.17 11.81,-27.8 24.33,-76.99 37.54,-147.45 3.04,-16.23 10.53,-62.35 22.56,-138.05 6.43,-42.01 8.95,-66.95 7.69,-74.79 -0.85,-4.62 -3.15,-8.49 -6.7,-11.74 -4.48,-4.43 -21.21,-12.45 -50.24,-23.77 -3.34,-1.34 -8.4,-3.44 -15.22,-6.15l5.61 -29.96c56.63,13.48 97.01,22.48 120.87,26.95 28.15,5.27 65.3,10.8 111.31,16.55l-5.61 29.96c-42.62,-0.09 -67.62,1.54 -75,4.9 -7.37,3.35 -12.53,9.43 -15.61,18.18 -5.18,14.67 -19.8,83.44 -43.62,206.03 -13.76,70.35 -24.24,116.34 -31.27,137.7 -10.21,29.24 -22.13,52.28 -35.93,69.22 -13.67,16.96 -31.77,31.66 -54.46,43.92 -22.57,12.43 -46.53,20 -71.73,22.74 -33.15,3.7 -67.6,2.12 -103.38,-4.59 -60.34,-11.3 -106.69,-29.03 -138.91,-53.16 -32.24,-24.13 -52.64,-51.64 -61.18,-82.67 -8.71,-30.91 -7.88,-73.69 2.33,-128.19l47.1 -251.33c6.03,-32.18 8.18,-52.87 6.58,-61.94 -1.49,-5.87 -4.89,-10.67 -10.48,-14.59 -5.61,-3.78 -27.94,-13.28 -66.88,-28.47zm643.1 118.57l2.32 -30.39c37.5,5.69 72.42,9.76 104.92,12.24 32.65,2.49 71.3,4.02 115.84,4.59 30.04,47.86 121.38,180.78 274.03,398.62l15.49 -225.54c2.79,-55.12 3,-85.82 0.66,-92.22 -2.48,-6.42 -6.89,-11.71 -13.24,-15.58 -6.2,-4.02 -29.22,-10.31 -68.62,-18.83l2.32 -30.39c43.97,6.18 82.27,10.52 115.19,13.03 31.8,2.42 72.43,4.11 122.03,5.06l-2.32 30.39c-8.56,1.04 -14.98,1.69 -19.1,1.81 -32.74,2.59 -52.42,6.47 -59.07,11.91 -6.78,5.42 -11.37,17.38 -13.9,35.73 -5.2,38.38 -12.36,117.52 -21.5,237.39 -5.88,77.1 -11.46,165.13 -16.76,264.36 -12.97,2.97 -25.97,6.51 -38.75,10.77l-141.47 -210.47 -216.5 -310.31 -13.33 197.12 -11.22 191.75c-0.27,14.55 0.46,23.67 2.01,27.46 1.68,3.95 4.27,7.13 7.62,9.65 5.91,3.98 25.1,10.4 57.7,18.97 3.88,1.01 9.55,2.86 17.13,5.55l-2.32 30.39c-47.21,-6.43 -85.09,-10.73 -113.79,-12.92 -24.49,-1.86 -66.24,-3.63 -125.13,-5.3l2.32 -30.39c8.59,-1.18 15.16,-2.09 19.6,-2.75 31.89,-2.52 51.11,-5.87 57.38,-10.05 4.17,-2.8 7.18,-6.96 9.29,-12.46 2.13,-5.5 6.92,-46.17 14.69,-122.15 11.36,-109.94 20.12,-204.37 26.13,-283.17 2,-26.31 1.89,-43.44 -0.5,-50.99 -2.25,-7.66 -6.88,-13.82 -14.03,-18.47 -6.98,-4.78 -25.33,-10.99 -54.89,-18.76 -4.57,-1.2 -11.37,-2.99 -20.23,-5.65zm687.25 50.25l-2.35 -30.81c64.24,-2.07 117.39,-4.7 159.18,-7.89 31.8,-2.43 75.93,-6.49 132.23,-12.34 40.84,-4.39 74.98,-7.7 102.56,-9.81 51.64,-3.93 93.09,-0.44 124.35,10.48 43.17,14.96 78.08,40.32 104.73,76.22 26.66,35.9 42.34,83.8 46.91,143.75 5.07,66.54 -5.89,126.96 -33.04,181.11 -27.13,54.29 -67.8,98.15 -121.86,131.57 -45.26,28.07 -101.31,44.66 -168.43,49.78 -6.33,0.48 -32,1.73 -76.85,3.73 -44.99,2.02 -70.23,3.24 -75.72,3.66 -19.27,1.47 -68.97,6.67 -149.38,15.63l-2.33 -30.53 17.34 -4.58c36.1,-9.12 57.04,-16.66 62.81,-22.62 5.92,-5.97 8.94,-14.4 9.25,-25.19 -0.09,-16.13 -5.89,-99.61 -17.4,-250.58 -8.45,-110.87 -14.34,-173.26 -17.67,-187.16 -2.14,-9.6 -6.19,-16.22 -12.02,-20.31 -5.82,-3.94 -27.34,-7.82 -64.57,-11.64l-17.74 -2.47zm260.11 482.57c33.64,2.96 61.71,3.65 84.22,1.94 63.17,-4.82 109.45,-27.17 138.68,-66.91 37.3,-50.95 52.42,-121.88 45.47,-212.91 -5.95,-78.1 -28.6,-135.81 -67.85,-173.43 -31.92,-30.83 -79.2,-43.78 -141.8,-39.01 -26.32,2.01 -58.06,6.98 -94.97,14.89 0.46,43.12 5.12,122.73 13.99,239.09 5.1,66.84 12.52,145.66 22.26,236.34zm346.73 -517.48l-5.61 -29.96c45.18,-5.59 86.77,-11.95 124.78,-19.07 25.94,-4.86 77,-15.86 153.17,-33.01l5.62 29.96c-24.37,10.16 -39.99,19.55 -46.98,28.19 -4.38,4.98 -6.06,10.6 -4.94,16.57 0.65,3.47 1.77,7.13 3.38,11.14 1.38,2.76 18.79,34.38 52.05,94.62l111.93 201.27c7,-33.18 22.61,-118.37 47.01,-255.6 -24.66,-41.17 -40.71,-66.31 -48.44,-75.34 -7.85,-9.01 -15.56,-14.89 -23.13,-17.77 -7.72,-2.87 -27.25,-5.96 -58.46,-9.3l-5.58 -29.82c67.09,-9.7 114.93,-17.23 143.91,-22.66 28.3,-5.3 74.37,-15.37 138.2,-30.2l5.61 29.96 -9.38 4.34c-26.29,11.39 -41.56,19.56 -45.54,24.33 -4.13,4.79 -5.55,10.22 -4.43,16.19 0.57,3.06 1.63,6.44 3.22,10.31l75.44 139.05c29.23,54.1 58.14,105.69 86.85,154.72 31.26,-212.45 45.43,-326.81 42.34,-343.31 -1.04,-5.54 -4.59,-9.9 -10.5,-13.11 -5.91,-3.2 -25.86,-5.49 -59.77,-7.18l-5.61 -29.95c41.3,-4.87 74.01,-9.57 98,-14.06 16.78,-3.15 52.03,-11.19 105.88,-24.15l5.61 29.96c-28.75,11.28 -47.17,21.76 -55.04,31.13 -7.86,9.37 -13.58,27.1 -17.3,53.21 -2.44,18.4 -8.17,52.21 -17.21,101.28 -18.09,99.57 -40.51,240.45 -67.24,422.62l-38.01 7.12c-42.52,-80.6 -108.52,-193 -198.29,-337.27 -28.95,149.72 -52.27,278.85 -69.82,387.51l-37.58 7.04 -159.88 -275.55c-69.74,-117.01 -111.53,-184.54 -125.21,-202.37 -7.13,-9.72 -14.11,-16.31 -21.1,-19.88 -9.87,-5.18 -32.52,-8.83 -67.95,-10.96zm1230.59 271.35l-10.23 -28.71c29.61,-16.98 46.29,-28.17 49.88,-33.64 3.64,-5.35 4.41,-11.17 2.14,-17.55 -1.28,-3.59 -3.54,-7.42 -6.71,-11.68 -8.13,-9.39 -33.21,-37.31 -75.36,-83.71 -36.61,12.44 -67.01,22.97 -91.2,31.59 -19.95,7.11 -52.95,19.16 -99.16,36.23 -4.99,78.48 -6.3,121.04 -3.98,127.54 2.22,6.25 5.96,10.01 11.17,11.61 5.16,1.45 25.17,-0.43 60.09,-5.84l10.23 28.72c-33.65,8.99 -65.5,18.84 -95.41,29.5 -32.16,11.45 -64.52,24.48 -96.81,38.98l-10.23 -28.71c21.65,-13.26 35.74,-24.56 42.29,-33.95 4.52,-6.24 7.74,-14.43 9.67,-24.56 4.28,-19.95 12,-94.15 22.89,-222.51 6.99,-81.3 15.74,-200.95 26.11,-358.94l31.11 -11.09c45.93,52.4 136.55,148.65 271.88,288.42 75.2,77.78 119.07,121.47 131.99,131.24 8.76,6.92 16.7,11.13 23.56,12.73 6.86,1.6 26.72,0.97 59.42,-1.85l10.23 28.72c-46.81,13.68 -89.95,27.55 -129.3,41.57 -38.81,13.83 -86.86,32.44 -144.27,55.89zm-214.99 -369.66l-13.08 210.94 76.03 -27.09c18.22,-6.49 44.27,-15.77 78.3,-27.9l-141.25 -155.95zm275.73 -237.61l-12.74 -28.15c59.67,-23.9 108.71,-44.54 146.9,-61.82 29.05,-13.15 69.13,-32.05 120.04,-56.79 36.89,-18.08 67.84,-32.87 93.04,-44.27 47.18,-21.35 87.32,-32.23 120.44,-32.65 45.68,-0.7 87.16,11.2 124.48,35.83 37.32,24.62 68.42,64.29 93.21,119.06 27.51,60.81 37.86,121.33 30.85,181.5 -6.94,60.29 -30.17,115.41 -69.55,165.29 -32.95,41.86 -79.95,76.6 -141.28,104.35 -5.78,2.62 -29.48,12.56 -70.94,29.78 -41.59,17.27 -64.89,27.04 -69.91,29.31 -17.62,7.97 -62.54,29.85 -135.05,65.75l-12.62 -27.9 14.73 -10.23c30.81,-20.91 47.91,-35.15 51.3,-42.73 3.52,-7.63 3.48,-16.59 0.08,-26.83 -5.6,-15.12 -39.58,-91.6 -101.99,-229.54 -45.84,-101.31 -72.7,-157.93 -80.58,-169.85 -5.3,-8.29 -11.36,-13.13 -18.23,-14.99 -6.83,-1.71 -28.37,2.01 -64.66,11.14l-17.52 3.74zm409.38 364.61c32.62,-8.72 59.24,-17.66 79.8,-26.96 57.73,-26.12 93.58,-62.94 107.47,-110.28 17.64,-60.63 7.6,-132.45 -30.04,-215.63 -32.28,-71.36 -73.3,-117.86 -123.03,-139.79 -40.55,-18.07 -89.4,-14.08 -146.6,11.8 -24.05,10.88 -52.18,26.4 -84.16,46.44 15.17,40.38 46.75,113.6 94.86,219.92 27.64,61.07 61.55,132.61 101.7,214.5z"/>
   <path class="fil0" d="M4543.08 12112.46c58.45,0 105.83,47.38 105.83,105.83 0,58.45 -47.38,105.83 -105.83,105.83 -58.45,0 -105.83,-47.38 -105.83,-105.83 0,-58.45 47.38,-105.83 105.83,-105.83z"/>
   <path class="fil0" d="M10673.73 12328.54c58.45,0 105.83,47.38 105.83,105.83 0,58.45 -47.38,105.83 -105.83,105.83 -58.45,0 -105.83,-47.38 -105.83,-105.83 0,-58.45 47.38,-105.83 105.83,-105.83z"/>
   <polyline class="fil5 str2" points="4401.55,6316.04 7619.92,3978.87 10838.45,6316.01 "/>
   <polygon class="fil5 str2" points="5202.61,6325.95 7619.93,4570.51 10037.39,6325.95 10037.39,9944.53 5202.61,9944.53 "/>
   <polygon class="fil5 str3" points="5202.6,5724.78 5202.6,3844.63 5993.85,3844.63 5993.85,5159.71 "/>
   <path class="fil6 str4" d="M5041.22 8761.25l0 744.03 -571.08 0 0 -2095.04 969.2 0c319.81,0 479.71,134.88 479.71,404.65l0 541.71c0,206.67 -93.55,333.94 -280.65,381.8l385.07 766.88 -613.5 0 -332.85 -744.03 -35.9 0zm225.17 -943.1l-225.17 0 0 554.76 225.17 0c54.39,0 81.58,-23.93 81.58,-71.79l0 -411.17c0,-47.87 -27.19,-71.8 -81.58,-71.8z"/>
   <path class="fil6" d="M5041.22 8761.25l0 744.03 -571.08 0 0 -2095.04 969.2 0c319.81,0 479.71,134.88 479.71,404.65l0 541.71c0,206.67 -93.55,333.94 -280.65,381.8l385.07 766.88 -613.5 0 -332.85 -744.03 -35.9 0zm225.17 -943.1l-225.17 0 0 554.76 225.17 0c54.39,0 81.58,-23.93 81.58,-71.79l0 -411.17c0,-47.87 -27.19,-71.8 -81.58,-71.8z"/>
   <path class="fil7" d="M5041.22 8761.25l0 744.03 -571.08 0 0 -2095.04 969.2 0c319.81,0 479.71,134.88 479.71,404.65l0 541.71c0,206.67 -93.55,333.94 -280.65,381.8l385.07 766.88 -613.5 0 -332.85 -744.03 -35.9 0zm225.17 -943.1l-225.17 0 0 554.76 225.17 0c54.39,0 81.58,-23.93 81.58,-71.79l0 -411.17c0,-47.87 -27.19,-71.8 -81.58,-71.8z"/>
   <polygon class="fil6 str4" points="10188.4,7533.08 10649.3,7533.08 10649.3,9382.43 10217.21,9382.43 9805.28,8411.66 9805.28,9382.43 9344.38,9382.43 9344.38,7533.08 9776.48,7533.08 10188.4,8521.13 "/>
   <polygon class="fil6" points="10188.4,7533.08 10649.3,7533.08 10649.3,9382.43 10217.21,9382.43 9805.28,8411.66 9805.28,9382.43 9344.38,9382.43 9344.38,7533.08 9776.48,7533.08 10188.4,8521.13 "/>
   <polygon class="fil7" points="10188.4,7533.08 10649.3,7533.08 10649.3,9382.43 10217.21,9382.43 9805.28,8411.66 9805.28,9382.43 9344.38,9382.43 9344.38,7533.08 9776.48,7533.08 10188.4,8521.13 "/>
   <polygon class="fil6 str5" points="6871.72,9944.54 8368.18,9944.54 8368.18,7818.95 6871.72,7818.95 "/>
   <path class="fil7" d="M4190.34 9567.13l25.19 -17.91c51.67,77.53 82.41,123.2 92.15,136.89 10.38,14.6 25.69,35.4 46.01,62.51 20.39,27.23 35.13,47.22 44.46,60.33 23.71,33.35 38.01,62.48 42.75,87.16 4.63,24.76 1.69,49.37 -8.84,74 -10.53,24.63 -27.34,45.06 -50.23,61.34 -19.55,13.9 -41.28,23.29 -65.05,28.08 -23.87,4.68 -46.96,4.82 -69.07,0.28 -14.49,-2.85 -33.43,-10.5 -56.84,-22.95 -15.45,34.02 -36.73,82.75 -63.98,146.44 -19.82,46.65 -31,75.73 -33.28,87.39 -2.14,11.58 -2.48,22.55 -0.88,32.84 2.93,15.57 12.97,40.64 30.11,75.21l-24.84 17.66c-24.77,-39.7 -45.7,-71.57 -62.79,-95.6 -18,-25.31 -41.31,-55.65 -69.94,-91.05 43.67,-72.26 90.95,-158.69 141.83,-259.28 -8.78,-13.33 -17.51,-27.55 -26.19,-42.68l-139.32 101.15c-16.92,12.73 -26.74,21.8 -29.09,27.27 -2.42,5.35 -2.96,10.94 -1.61,16.73 0.72,4.16 10.49,27.16 29.42,69.12l-24.84 17.66c-34.91,-53.96 -63.61,-96.75 -86.1,-128.38 -22.16,-31.16 -52.83,-71.86 -92.01,-122.09l24.84 -17.66c34.16,33.2 54.74,50.93 62.08,52.99 7.24,2.13 16.92,-0.08 29.17,-6.72 6.59,-3.64 64.42,-44.08 173.71,-121.45l100.15 -71.74c47.15,-33.53 74.98,-54.53 83.5,-63.01 5.91,-6.29 8.99,-13.15 9.02,-20.44 0.01,-7.28 -7.22,-26.21 -21.8,-56.71l-7.69 -17.38zm-71.23 314.02c7.55,11.6 13.21,20.04 17.06,25.44 22.32,31.4 46.31,49.32 71.89,53.63 25.59,4.32 53.67,-4.4 84.26,-26.14 28.75,-20.45 45.65,-43.21 50.76,-68.14 5.13,-24.94 -0.94,-49.54 -18.19,-73.8 -7.04,-9.9 -16.8,-22.17 -29.39,-36.95l-176.39 125.96zm394.14 151.85l23.04 -19.95c41.38,52.08 87.62,107.61 138.62,166.48 59.23,68.37 121.27,137.84 186.23,208.53 -43.18,38.52 -78.74,74.18 -106.71,106.99l-23.19 -26.77c4.5,-8.18 8.04,-14.43 10.64,-18.54 20.79,-36.13 31.14,-59.09 30.86,-69.12 -0.38,-10.13 -9.39,-25.28 -27.22,-45.87l-104.22 -120.31c-36.39,28.9 -88.2,72.11 -155.45,129.62l46.76 55.27c24.66,28.47 42.69,43.67 53.97,45.48 11.17,1.9 35.73,-7.24 73.77,-27.33l22.74 26.24c-32.46,24.39 -60.37,46.7 -83.72,66.93 -22.29,19.31 -49.21,44.49 -80.74,75.54l-22.74 -26.24c28.52,-34.97 42.82,-57.26 43.12,-67.03 0.3,-9.78 -11.56,-28.44 -35.31,-55.86l-53.4 -61.64 -174.71 151.34 108.19 124.89c12.02,13.87 20.81,22.3 26.49,25.42 9.05,5.05 19.68,7.41 31.88,7.48 25.16,0.6 60.28,-3.68 105.67,-12.93l23.93 27.62c-44.79,17.7 -97.45,40.53 -157.97,68.51 -59.49,-72.99 -122.74,-148.15 -189.9,-225.68 -30.59,-35.31 -74.25,-83.56 -131.07,-144.85l23.03 -19.96c36.04,28.89 58.05,44.18 66.04,45.85 10.71,2.67 25.72,-4.36 45.13,-21.17l10.56 -9.15 124.94 -105.99 100.04 -86.66 45.19 -41.38c22.29,-19.31 35.13,-32.5 38.63,-39.45 3.51,-6.95 3.98,-15.02 1.43,-24.21 -2.42,-9.28 -13.95,-29.92 -34.55,-62.1zm690.4 1017.69l-19.95 23.04c-32.91,-19.35 -54.8,-30.49 -65.72,-33.41 -5.39,-1.31 -11.22,-0.19 -17.66,3.37 -6.35,3.66 -21.16,18.82 -44.45,45.7 -37.23,42.98 -69.61,81.21 -97.31,114.91 -16.31,-9.84 -34.45,-20.14 -54.35,-31.21 -52.47,-28.65 -89.43,-50.22 -111.16,-64.57 -21.54,-14.36 -43.56,-31.2 -65.85,-50.5 -51.83,-44.91 -87.26,-86.98 -106.26,-126.04 -23.42,-49.03 -30.14,-99.48 -20.35,-151.29 9.81,-51.62 35.26,-101.27 76.47,-148.84 73.17,-84.47 160.68,-122.55 262.51,-114.24 72.87,6.18 145.89,40.87 218.95,104.15 49.06,42.5 98.21,97.4 147.36,164.81 -11.15,12 -19.95,21.73 -26.42,29.2 -21.17,24.43 -50.13,60.02 -86.8,106.66l-31.36 -27.16c21.29,-42.25 33.22,-73.92 36.11,-95.13 2.79,-21.1 -1.75,-43.89 -13.49,-68.05 -11.73,-24.18 -31.04,-48 -58.03,-71.38 -35.3,-30.58 -70.93,-48.93 -107.09,-55.04 -36.25,-6.2 -73.91,0.19 -113.06,19.1 -39.18,18.72 -75.81,47.85 -109.72,86.99 -54.23,62.61 -80.53,122.72 -78.91,180.32 1.63,57.6 26.39,107.25 74.5,148.92 24.1,20.88 54.95,38.08 92.33,51.6l83.43 -96.31c18.2,-21.01 28.87,-35.48 32.11,-43.32 1.74,-5.03 1.45,-10.51 -0.79,-16.54 -2.32,-5.93 -12.6,-21 -31.14,-45.09 -1.99,-2.65 -5,-6.94 -9.11,-12.75l19.95 -23.04c46.15,43.71 81.28,76.01 105.49,96.99 17.7,15.33 57.67,48.07 119.77,98.15zm403.76 -98.29l-16.45 25.66 -14.2 -6.09c-32.89,-15.88 -54.27,-23.05 -63.91,-21.36 -9.64,1.7 -19.66,10.52 -29.94,26.56l-8 12.48 -76.14 115.62 -84.73 133.75 -42.78 68.28c-12.8,19.96 -19.85,33.05 -21.1,39.45 -1.37,6.32 -0.44,12.45 2.72,18 5.49,9.72 19.85,24.96 42.85,45.57 2.54,2.31 6.37,5.76 11.46,10.36l-16.45 25.66c-46,-32.83 -87.05,-60.83 -123.16,-83.98 -34.22,-21.93 -80.35,-49.84 -138.42,-83.72l16.45 -25.66c40.44,16.38 62.76,24.99 67.11,25.77 6.65,1.41 12.67,0.91 17.91,-1.26 7,-3.06 15.78,-12.85 26.61,-29.2 25.62,-37.88 68.21,-103.28 127.62,-195.93l79.2 -128.25 6.7 -10.45c11.88,-18.53 16.97,-32.21 15.05,-40.98 -1.92,-8.77 -16.63,-25.57 -44.01,-50.33 -3.06,-2.81 -7.44,-6.96 -13.13,-12.45l16.45 -25.66c58.11,40.61 102.14,70.51 131.84,89.55 31.83,20.4 75.24,46.56 130.45,78.61zm240.33 323.48l-36.92 -18.91c15.96,-50.96 19.8,-88.79 11.51,-113.17 -8.28,-24.37 -26.39,-43.81 -54.65,-58.28 -25.24,-12.93 -48.19,-16.44 -69.13,-10.51 -20.76,5.85 -36.41,19.08 -46.83,39.42 -9.27,18.09 -11.16,37.89 -5.76,59.21 5.41,21.64 26.78,56.05 64.19,103.11 37.47,46.95 59.68,87.8 66.47,122.2 6.61,34.78 0.59,70.38 -18.13,106.92 -22.59,44.09 -58.98,74.28 -109.32,90.51 -50.2,16.3 -112.31,5.41 -186.42,-32.55 -26.49,-13.57 -50.47,-28.38 -71.95,-44.3 -16.61,-11.84 -35.83,-28.81 -57.95,-50.93 26.33,-40.89 50.28,-82.38 71.7,-124.2l12.6 -24.61 36.93 18.91c-15.79,53.43 -21.02,91.81 -15.76,115.27 6.7,31.5 26.22,55.61 58.62,72.21 25.62,13.12 50.33,15.95 73.7,8.41 23.49,-7.47 41.44,-23.32 53.72,-47.31 7.79,-15.2 11.47,-30.44 11.11,-45.52 -0.49,-15.16 -4.69,-30.78 -12.6,-46.89 -7.93,-16.11 -24.66,-40.69 -50.41,-73.7 -39.14,-51.12 -61.64,-92.61 -67.51,-124.47 -6.01,-31.62 -1.17,-62.75 14.53,-93.4 23.16,-45.21 59.04,-74.08 107.57,-86.79 48.65,-12.67 104.35,-2.84 167.14,29.32 41.7,21.36 82.86,52.43 123.54,93.4 -20.74,38.05 -34.95,64.54 -42.61,79.49 -8.94,17.46 -18.08,36.55 -27.38,57.16zm525.95 225.13l-35.72 -14.09c3.66,-61.2 5.01,-96.16 3.79,-104.99 -1.09,-8.78 -4.58,-16.07 -10.66,-21.8 -6.03,-5.87 -28.18,-16.27 -66.64,-31.43l-37.29 -14.7 -141.67 359.29c-17.6,44.64 -26.64,72.17 -27.29,82.69 -0.34,5.47 1.78,10.86 6.69,16.12 4.71,5.36 25.85,19.45 63.17,42.51l-11.18 28.36c-77.07,-33.43 -126.7,-54.51 -148.89,-63.26 -30.19,-11.91 -76.92,-28.81 -140.18,-50.73l11.18 -28.35c43.94,8.98 70.59,12.96 79.8,11.9 6.21,-0.73 11.62,-4.06 16.17,-9.86 4.56,-5.78 16.04,-32.2 34.68,-79.46l140.17 -355.49 -64.72 -25.52c-21.8,-8.59 -36.96,-12.45 -45.45,-11.7 -8.4,0.93 -16.85,5.04 -25.22,12.81 -12.65,11.69 -33.76,36.75 -63.49,75.23l-35.05 -13.82c19.38,-36.05 32.38,-60.96 39.12,-74.98 6.75,-14.03 18.96,-41.53 36.68,-82.62 100.44,42.63 199.14,82.77 296.17,120.58 82.22,31.5 141.58,53.7 177.99,66.39 -19.3,49.72 -36.69,105.36 -52.16,166.92zm36.58 -132.05l6.85 -29.7c64.13,17.69 134.21,35.31 210.1,52.83 88.14,20.34 179.21,39.91 273.34,58.75 -12.19,56.56 -19.91,106.33 -23.17,149.32l-34.52 -7.96c-1.19,-9.26 -2,-16.4 -2.33,-21.25 -4.48,-41.44 -9.65,-66.1 -15.78,-74.03 -6.28,-7.97 -22.49,-14.9 -49.03,-21.02l-155.09 -35.8c-12.37,44.79 -28.78,110.23 -49.23,196.32l70.35 17.11c36.7,8.47 60.22,10.13 70.4,4.95 10.14,-5.05 24.6,-26.91 43.51,-65.56l33.83 7.81c-11.86,38.83 -21.26,73.3 -28.21,103.4 -6.63,28.74 -13.54,64.94 -20.73,108.62l-33.83 -7.81c2.44,-45.06 0.86,-71.49 -4.65,-79.57 -5.53,-8.08 -26.11,-16.16 -61.45,-24.32l-79.47 -18.34 -51.98 225.22 161.01 37.16c17.88,4.13 29.95,5.75 36.37,4.93 10.28,-1.25 20.27,-5.61 30.17,-12.74 20.68,-14.34 46.54,-38.5 77.75,-72.71l35.61 8.22c-25.76,40.69 -54.85,90.16 -87.26,148.42 -91.08,-23.91 -186.46,-47.37 -286.41,-70.44 -45.52,-10.51 -109.23,-23.77 -191.25,-39.8l6.85 -29.7c46.14,2.11 72.93,1.49 80.37,-1.87 10.23,-4.15 18.22,-18.68 23.99,-43.7l3.14 -13.61 38.5 -159.26 29.76 -128.97 12.13 -60.06c6.63,-28.73 9.24,-46.95 7.97,-54.63 -1.26,-7.68 -5.64,-14.48 -13.1,-20.4 -7.43,-6.07 -28.91,-15.95 -64.51,-29.81zm507.94 130.91l2.34 -30.81c92.65,9.87 147.41,15.45 164.17,16.72 17.86,1.36 43.64,2.9 77.48,4.62 33.97,1.74 58.77,3.2 74.81,4.42 40.8,3.1 72.34,10.74 94.34,22.89 22,12.28 39.03,30.27 51.23,54.12 12.19,23.86 17.15,49.85 15.02,77.85 -1.82,23.92 -8.5,46.63 -20.02,67.97 -11.67,21.33 -26.34,39.17 -43.97,53.27 -11.46,9.31 -29.46,18.98 -54,29 16.26,33.64 40.11,81.17 71.64,142.86 23.18,45.07 38.38,72.27 45.89,81.47 7.52,9.06 15.74,16.34 24.67,21.68 13.85,7.72 39.54,16.04 77.07,24.97l-2.31 30.39c-46.36,-6.35 -84.24,-10.65 -113.65,-12.88 -30.96,-2.36 -69.2,-3.85 -114.72,-4.48 -27.61,-79.8 -63.81,-171.42 -108.58,-274.88 -15.86,-1.78 -32.38,-4.15 -49.56,-7.17l-11.36 171.8c-1.05,21.15 -0.36,34.5 2.35,39.8 2.57,5.29 6.52,9.27 11.83,11.94 3.66,2.11 27.59,9.31 71.95,21.6l-2.31 30.39c-63.81,-7.68 -115.06,-12.99 -153.76,-15.93 -38.13,-2.9 -89.03,-5.36 -152.7,-7.37l2.31 -30.39c47.37,-5.03 74.17,-9.51 80.44,-13.84 6.27,-4.19 10.76,-13.05 13.5,-26.71 1.41,-7.39 7.32,-77.71 17.75,-211.21l8.93 -122.87c4.38,-57.69 6.04,-92.52 4.97,-104.49 -1.05,-8.57 -4.36,-15.33 -9.94,-20 -5.59,-4.67 -24.76,-11.22 -57.53,-19.52l-18.28 -5.21zm195.81 255.62c13.75,1.61 23.86,2.66 30.47,3.16 38.41,2.92 67.53,-4.06 87.21,-20.96 19.69,-16.9 30.95,-44.07 33.79,-81.49 2.68,-35.18 -4,-62.72 -19.9,-82.61 -15.89,-19.89 -38.68,-30.96 -68.37,-33.22 -12.1,-0.92 -27.78,-1.27 -47.19,-1.04l-16.01 216.16zm365.64 -215.71l-0.77 -30.47c66.51,1.14 138.77,0.72 216.64,-1.25 90.43,-2.29 183.5,-6.05 279.35,-11.3 2.31,57.82 7.24,107.94 14.81,150.39l-35.41 0.89c-3.46,-8.66 -6.03,-15.37 -7.56,-19.99 -14.68,-39.01 -25.83,-61.6 -33.75,-67.75 -8.07,-6.15 -25.49,-8.82 -52.72,-8.13l-159.12 4.02c-0.81,46.47 -0.37,113.93 1.31,202.39l72.38 -0.98c37.66,-0.95 60.85,-5.21 69.41,-12.76 8.57,-7.42 17.11,-32.2 25.78,-74.34l34.71 -0.88c-1.79,40.56 -2.3,76.28 -1.52,107.17 0.75,29.49 3.09,66.27 7.02,110.35l-34.71 0.88c-8.88,-44.24 -17,-69.44 -24.35,-75.89 -7.37,-6.44 -29.31,-9.14 -65.57,-8.22l-81.54 2.06 5.85 231.06 165.18 -4.17c18.35,-0.47 30.45,-1.9 36.46,-4.31 9.64,-3.77 18.23,-10.48 26.03,-19.85 16.46,-19.05 35.47,-48.89 57.16,-89.81l36.54 -0.93c-14.8,45.83 -30.63,101 -47.48,165.51 -94.16,-0.44 -192.39,0.63 -294.93,3.22 -46.7,1.18 -111.7,4.24 -195.13,9.17l-0.78 -30.47c45.21,-9.47 71,-16.75 77.37,-21.85 8.86,-6.58 12.98,-22.64 12.33,-48.31l-0.35 -13.97 -2.46 -163.82 -3.34 -132.32 -3.24 -61.18c-0.75,-29.48 -2.77,-47.78 -5.91,-54.9 -3.14,-7.12 -9.07,-12.62 -17.78,-16.49 -8.71,-4.02 -31.97,-8.23 -69.91,-12.77zm485.79 -1.27l-5.44 -30.42c63.71,-8.52 116.32,-16.48 157.59,-23.85 31.39,-5.61 74.89,-14.08 130.31,-25.56 40.2,-8.47 73.83,-15.19 101.06,-20.06 50.98,-9.1 92.57,-9.79 124.77,-2.06 44.46,10.55 81.74,32.27 111.86,65.31 30.13,33.04 50.54,79.13 61.11,138.31 11.73,65.7 6.9,126.91 -14.67,183.52 -21.54,56.74 -57.61,104.46 -108.03,143.14 -42.22,32.48 -96.32,54.61 -162.58,66.45 -6.25,1.11 -31.67,4.93 -76.09,11.43 -44.55,6.52 -69.54,10.28 -74.97,11.25 -19.03,3.39 -67.95,13.56 -147.06,30.55l-5.38 -30.14 16.8 -6.3c35,-12.7 55.07,-22.3 60.22,-28.82 5.28,-6.53 7.45,-15.22 6.67,-25.98 -1.71,-16.04 -15.86,-98.52 -42.48,-247.57 -19.55,-109.46 -31.68,-170.94 -36.38,-184.44 -3.1,-9.34 -7.79,-15.52 -14,-19 -6.2,-3.33 -27.99,-5.03 -65.42,-5.09l-17.89 -0.67zm307.27 454c33.76,-0.45 61.76,-2.57 83.98,-6.54 62.37,-11.14 106.16,-38.03 131.26,-80.5 32,-54.44 39.91,-126.53 23.86,-216.4 -13.77,-77.1 -42.11,-132.25 -84.93,-165.73 -34.87,-27.47 -83.2,-35.61 -145.01,-24.57 -25.98,4.64 -57.07,12.77 -92.99,24.34 4.79,42.87 17.42,121.6 37.94,236.49 11.78,65.98 27.09,143.66 45.89,232.91zm657.7 -667.27l-12.56 -27.77c35.62,-13.01 68.22,-26.2 97.92,-39.63 29.84,-13.48 64.48,-30.69 103.83,-51.57 49.32,27.57 193.25,100.33 431.73,218.16l-94.67 -205.29c-24.01,-49.7 -38.56,-76.73 -43.69,-81.23 -5.25,-4.43 -11.66,-6.96 -19.09,-7.31 -7.37,-0.54 -30.58,4.99 -69.23,16.43l-12.56 -27.78c41.54,-15.68 77.22,-30.26 107.31,-43.86 29.06,-13.14 65.51,-31.16 109.48,-54.14l12.56 27.78c-7.02,5.02 -12.34,8.67 -15.9,10.75 -27.47,18 -42.88,30.84 -46.1,38.8 -3.34,8.01 -1.63,20.71 4.95,38.02 13.87,36.17 45.57,109.03 95.09,218.58 31.85,70.46 69.21,150.37 112.19,239.96 -9.94,8.83 -19.65,18.18 -28.82,28.05l-225.13 -116.74 -338.88 -168.31 82.92 179.33 82.2 173.6c6.75,12.9 11.77,20.55 14.94,23.13 3.38,2.66 7.17,4.2 11.32,4.81 7.1,0.65 27.01,-2.93 59.73,-11.06 3.89,-0.98 9.74,-2.08 17.68,-3.35l12.56 27.77c-44.5,17.02 -79.8,31.43 -106.02,43.29 -22.38,10.11 -59.86,28.61 -112.32,55.41l-12.55 -27.77c6.96,-5.16 12.29,-9.12 15.87,-11.82 26.77,-17.52 42.02,-29.68 45.51,-36.36 2.32,-4.46 2.96,-9.55 2.17,-15.4 -0.77,-5.83 -16.09,-43.82 -45.74,-114.2 -42.81,-101.91 -80.45,-188.95 -113.01,-260.96 -10.86,-24.04 -19.18,-39.02 -24.9,-44.49 -5.66,-5.64 -12.67,-8.83 -21.17,-9.47 -8.43,-0.85 -27.51,2.52 -57.17,9.88 -4.58,1.15 -11.41,2.85 -20.45,4.76zm604.43 -261.53l-17.66 -24.84c54.19,-35.08 97.1,-63.86 128.72,-86.34 31.63,-22.5 72.44,-53.25 122.44,-92.26l17.66 24.84c-29.05,28.79 -46.36,48.03 -51.94,57.71 -3.77,6.15 -5.04,11.9 -3.86,17.46 1.82,7.19 11.23,22.85 28.32,46.88l122.75 172.61c31.65,44.51 55.56,73.04 71.88,85.5 21.37,16.67 45.47,24.98 72.57,25.11 27.01,0.01 57.01,-11.63 89.78,-34.94 36.11,-25.67 58.13,-52.42 66.07,-80.22 7.93,-27.8 5.84,-55.58 -5.96,-83.38 -11.81,-27.8 -38.51,-70.96 -80.06,-129.38 -9.57,-13.46 -37.56,-50.87 -83.69,-112.08 -25.77,-33.8 -41.97,-52.92 -48.48,-57.47 -3.92,-2.59 -8.3,-3.62 -13.1,-3.32 -6.3,0.15 -23.69,6.62 -51.99,19.66 -3.29,1.46 -8.31,3.65 -15,6.67l-17.66 -24.84c49.01,-31.39 83.53,-54.21 103.31,-68.27 23.34,-16.6 53.11,-39.51 89.2,-68.62l17.66 24.84c-29.66,30.61 -45.84,49.73 -48.54,57.37 -2.71,7.64 -1.92,15.56 2.24,23.86 6.96,13.92 46.31,72.18 117.99,174.44 41.08,58.74 66.91,98.22 77.41,118.11 13.95,27.65 22.25,52.22 24.86,73.91 2.72,21.62 0.73,44.85 -6.2,69.69 -6.73,24.88 -17.91,47.37 -33.44,67.42 -20.35,26.42 -45.4,50.12 -75.07,71.21 -50.03,35.58 -94.97,56.63 -134.71,63.07 -39.74,6.45 -73.71,2.03 -101.97,-13.37 -28.29,-15.19 -58.5,-45.49 -90.64,-90.68l-148.18 -208.39c-18.98,-26.68 -32.37,-42.6 -40.01,-47.73 -5.26,-3.01 -11.08,-3.9 -17.78,-2.6 -6.61,1.41 -28.95,10.89 -66.92,28.37zm551.41 -391.26l-21.33 -22.36c69.35,-62.23 110.16,-99.18 122.31,-110.78 12.97,-12.36 31.37,-30.48 55.3,-54.47 24.03,-24.08 41.71,-41.52 53.35,-52.63 29.62,-28.23 56.41,-46.55 80.16,-54.77 23.84,-8.12 48.61,-8.73 74.5,-1.82 25.89,6.9 48.51,20.62 67.89,40.94 16.55,17.36 28.95,37.53 37.09,60.37 8.04,22.95 11.48,45.79 10.15,68.32 -0.75,14.75 -5.62,34.59 -14.59,59.54 35.88,10.43 87.15,24.53 154.08,42.39 49.01,12.95 79.39,19.86 91.25,20.44 11.76,0.47 22.68,-0.76 32.62,-3.82 15,-5.12 38.38,-18.64 70.14,-40.54l21.03 22.06c-35.75,30.19 -64.3,55.46 -85.64,75.81 -22.47,21.42 -49.18,48.83 -80.12,82.23 -77.76,-32.9 -170.07,-67.34 -276.9,-103.32 -11.93,10.6 -24.76,21.28 -38.49,32.03l120.03 123.42c15.01,14.94 25.39,23.36 31.14,24.9 5.65,1.63 11.25,1.36 16.79,-0.79 4.02,-1.31 25.39,-14.27 64.21,-39l21.03 22.06c-48.42,42.26 -86.67,76.78 -114.75,103.56 -27.68,26.39 -63.58,62.56 -107.69,108.52l-21.03 -22.06c27.97,-38.55 42.58,-61.46 43.56,-69.02 1.08,-7.47 -2.49,-16.73 -10.81,-27.91 -4.55,-6 -52.83,-57.45 -145.03,-154.56l-85.32 -88.87c-39.92,-41.88 -64.69,-66.42 -74.3,-73.64 -7.07,-4.95 -14.3,-7.02 -21.51,-6 -7.21,1.03 -24.91,10.88 -53.02,29.68l-16.1 10.09zm320.98 25.62c10.39,-9.14 17.94,-15.95 22.74,-20.52 27.88,-26.58 42.18,-52.89 42.8,-78.82 0.62,-25.95 -12.02,-52.49 -37.92,-79.66 -24.35,-25.53 -49.28,-39.01 -74.7,-40.5 -25.41,-1.51 -48.89,8.01 -70.44,28.56 -8.78,8.37 -19.54,19.79 -32.36,34.36l149.88 156.58zm460.2 -638.03l-27.16 31.35c-45.69,-27.63 -81.52,-40.37 -107.17,-38.13 -25.64,2.24 -48.83,15.2 -69.62,39.2 -18.57,21.43 -27.44,42.88 -26.67,64.63 0.73,21.56 9.85,39.91 27.13,54.88 15.36,13.3 34.14,19.86 56.13,19.69 22.31,-0.1 60.82,-12.66 115.44,-37.78 54.52,-25.21 99.49,-37.05 134.51,-35.46 35.35,1.87 68.49,16.2 99.53,43.09 37.44,32.43 58.09,74.97 61.86,127.72 3.88,52.64 -21.49,110.37 -76.01,173.3 -19.49,22.51 -39.58,42.26 -60.17,59.34 -15.45,13.31 -36.51,27.93 -63.26,44.14 -33.45,-35.31 -68.03,-68.45 -103.55,-99.21l-20.9 -18.11 27.17 -31.36c48.12,28.07 84.16,42.29 108.19,42.77 32.19,1 60.26,-12.22 84.09,-39.74 18.85,-21.76 27.48,-45.08 25.73,-69.57 -1.67,-24.59 -12.79,-45.8 -33.16,-63.45 -12.9,-11.18 -26.83,-18.39 -41.56,-21.63 -14.84,-3.14 -31.01,-2.78 -48.54,1.07 -17.54,3.87 -45.4,14.26 -83.58,31.41 -58.98,25.83 -104.64,37.81 -136.98,35.92 -32.14,-1.7 -61.22,-13.82 -87.24,-36.36 -38.4,-33.26 -57.89,-74.98 -58.68,-125.15 -0.71,-50.26 22.1,-102.02 68.29,-155.34 30.67,-35.41 70.66,-67.99 120.14,-97.74 32.01,29.21 54.36,49.32 67.05,60.31 14.83,12.85 31.19,26.27 48.99,40.21zm-95.18 -108.47l-25.66 -16.45c38.24,-54.43 78.42,-114.49 120.46,-180.06 48.82,-76.16 97.9,-155.32 147.32,-237.63 49.16,30.53 93.43,54.55 132.81,72.09l-19.12 29.81c-9.11,-1.99 -16.11,-3.62 -20.79,-4.95 -40.53,-9.73 -65.49,-13.16 -75.02,-10.05 -9.62,3.23 -21.6,16.16 -36.3,39.09l-85.91 134c38.02,26.72 94.12,64.19 168.3,112.42l39.79 -60.48c20.33,-31.71 29.81,-53.3 28.35,-64.63 -1.34,-11.25 -17.05,-32.22 -47.08,-63.03l18.73 -29.23c32.58,24.23 61.87,44.69 87.88,61.36 24.83,15.92 56.6,34.61 95.3,56.08l-18.74 29.22c-41.61,-17.45 -67.03,-24.86 -76.49,-22.39 -9.46,2.48 -24,19.14 -43.58,49.67l-44.02 68.66 194.58 124.76 89.19 -139.11c9.9,-15.45 15.5,-26.27 16.88,-32.6 2.28,-10.1 1.54,-20.97 -1.84,-32.69 -6.54,-24.3 -20.59,-56.78 -42.3,-97.69l19.73 -30.77c29.64,37.95 66.44,82 110.39,132.13 -53.17,77.71 -107.37,159.64 -162.73,246 -25.21,39.32 -59.14,94.85 -101.85,166.69l-25.66 -16.45c17.52,-42.74 25.95,-68.18 25.3,-76.31 -0.48,-11.03 -11.46,-23.44 -33.08,-37.3l-11.76 -7.54 -137.01 -89.84 -111.43 -71.44 -52.47 -31.64c-24.83,-15.91 -41.11,-24.5 -48.77,-25.89 -7.66,-1.4 -15.53,0.43 -23.62,5.48 -8.21,4.95 -24.75,21.85 -49.78,50.71z"/>
   <g style="clip-path:url(#id0)">
    <image x="3369.16" y="4537.73" width="8504.1" height="6657.48" xlink:href="Anugrah_Images\Anugrah_ImgID1.png"/>
   </g>
  </g>
 </g>
</svg>
